<?xml version="1.0" encoding="UTF-8" standalone="no"?>
<!-- Created with Inkscape (http://www.inkscape.org/) -->

<svg
   width="214mm"
   height="48mm"
   viewBox="0 0 808.81891 181.41731"
   version="1.1"
   id="svg5"
   sodipodi:docname="GF-CSB-H-D1.svg"
   inkscape:version="1.1.1 (c3084ef, 2021-09-22)"
   xmlns:inkscape="http://www.inkscape.org/namespaces/inkscape"
   xmlns:sodipodi="http://sodipodi.sourceforge.net/DTD/sodipodi-0.dtd"
   xmlns="http://www.w3.org/2000/svg"
   xmlns:svg="http://www.w3.org/2000/svg">
  <sodipodi:namedview
     id="namedview7"
     pagecolor="#ffffff"
     bordercolor="#666666"
     borderopacity="1.0"
     inkscape:pageshadow="2"
     inkscape:pageopacity="0.0"
     inkscape:pagecheckerboard="0"
     inkscape:document-units="mm"
     showgrid="false"
     height="48mm"
     width="214mm"
     inkscape:zoom="1"
     inkscape:cx="397.5"
     inkscape:cy="111"
     inkscape:window-width="1440"
     inkscape:window-height="900"
     inkscape:window-x="0"
     inkscape:window-y="0"
     inkscape:window-maximized="0"
     inkscape:current-layer="text130530" />
  <defs
     id="defs2">
    <rect
       x="-31"
       y="2"
       width="654"
       height="57"
       id="rect312605" />
    <rect
       x="-53"
       y="-33"
       width="599.33582"
       height="51.470181"
       id="rect304807" />
    <rect
       x="4"
       y="-102"
       width="683"
       height="75"
       id="rect292580" />
    <rect
       x="-26"
       y="-19"
       width="653"
       height="71"
       id="rect286238" />
    <rect
       x="5"
       y="7"
       width="584.88562"
       height="50.772861"
       id="rect280171" />
    <rect
       x="-20"
       y="-7"
       width="662"
       height="114"
       id="rect276183" />
    <rect
       x="-62"
       y="-117"
       width="602"
       height="66"
       id="rect273779" />
    <rect
       x="-11"
       y="8"
       width="630"
       height="47"
       id="rect267921" />
    <rect
       x="-17"
       y="-56"
       width="601"
       height="47"
       id="rect241764" />
    <rect
       x="-21"
       y="-113"
       width="602"
       height="67"
       id="rect232574" />
    <rect
       x="7"
       y="7"
       width="606"
       height="52"
       id="rect223614" />
    <rect
       x="-18"
       y="-83"
       width="375"
       height="47"
       id="rect220440" />
    <rect
       x="-57"
       y="-4"
       width="695"
       height="56"
       id="rect208067" />
    <rect
       x="-26"
       y="-25"
       width="117.83492"
       height="67"
       id="rect199041" />
    <rect
       x="-21"
       y="6"
       width="644"
       height="42"
       id="rect194151" />
    <rect
       x="-17"
       y="-22"
       width="649"
       height="145"
       id="rect179322" />
    <rect
       x="-139"
       y="97"
       width="561"
       height="60"
       id="rect142880" />
    <rect
       x="-148"
       y="124"
       width="591"
       height="81"
       id="rect136350" />
    <rect
       x="-194"
       y="53"
       width="289"
       height="42"
       id="rect129798" />
    <rect
       x="-102"
       y="-76"
       width="571"
       height="277"
       id="rect123431" />
    <rect
       x="-55"
       y="-26"
       width="495"
       height="236"
       id="rect54067" />
    <rect
       x="15"
       y="89"
       width="285"
       height="61"
       id="rect25555" />
    <rect
       x="19.226912"
       y="14.954265"
       width="297.21442"
       height="43.081638"
       id="rect3399" />
  </defs>
  <g
     inkscape:label="Layer 1"
     inkscape:groupmode="layer"
     id="layer1"
     style="mix-blend-mode:normal">
    <g
       aria-label="Contract Software Bureau"
       transform="matrix(1.0916438,0,0,1.1886083,-15.877589,-11.945577)"
       id="text3397"
       style="font-size:29.3333px;line-height:1.5;white-space:pre;shape-inside:url(#rect3399);fill:#104a90;stroke-width:33.1801">
      <text
         xml:space="preserve"
         transform="matrix(0.9160497,0,0,0.84132003,14.544661,10.050053)"
         id="text123429"
         style="font-weight:bold;font-size:40px;line-height:1.25;font-family:sans-serif;-inkscape-font-specification:'sans-serif Bold';white-space:pre;shape-inside:url(#rect123431)" />
      <text
         xml:space="preserve"
         transform="matrix(0.9160497,0,0,0.84132003,14.544661,10.050053)"
         id="text129796"
         style="font-weight:bold;font-size:40px;line-height:1.25;font-family:sans-serif;-inkscape-font-specification:'sans-serif Bold';white-space:pre;shape-inside:url(#rect129798)" />
      <g
         aria-label="Contract Software Bureau"
         transform="matrix(1.0434674,0,0,0.9583433,0,-4.2065992)"
         id="text130530"
         style="font-weight:bold;font-size:35.1156px;-inkscape-font-specification:'sans-serif Bold';stroke-width:29.1285">
        <g
           transform="matrix(0.8778901,0,0,0.87789004,13.938779,10.486903)"
           id="text194149"
           style="font-size:40px;font-family:'Bodoni 72';-inkscape-font-specification:'Bodoni 72 Bold'" />
        <g
           transform="matrix(0.8778901,0,0,0.87789004,13.938779,10.486903)"
           id="text199039"
           style="font-size:40px;font-family:'Bodoni 72';-inkscape-font-specification:'Bodoni 72 Bold'" />
        <g
           transform="matrix(0.8778901,0,0,0.87789004,13.938779,10.486903)"
           id="text208065"
           style="font-size:40px;font-family:'Bodoni 72';-inkscape-font-specification:'Bodoni 72 Bold'" />
        <g
           transform="matrix(0.8778901,0,0,0.87789004,13.938779,10.486903)"
           id="text220438"
           style="font-size:40px;font-family:'Bodoni 72';-inkscape-font-specification:'Bodoni 72 Bold'" />
        <g
           transform="matrix(0.8778901,0,0,0.87789004,13.938779,10.486903)"
           id="text223612"
           style="font-size:40px;font-family:'Bodoni 72';-inkscape-font-specification:'Bodoni 72 Bold'" />
        <g
           aria-label="Contract Software Bureau"
           transform="matrix(0.8930413,0,0,0.87789004,216.14709,152.70508)"
           id="text232572"
           style="font-size:50.6667px;font-family:'Bodoni 72';-inkscape-font-specification:'Bodoni 72 Bold';letter-spacing:2px;word-spacing:5px">
          <text
             xml:space="preserve"
             transform="matrix(0.98303415,0,0,1,-25.887661,-110.99999)"
             id="text280169"
             style="font-weight:bold;font-size:29.3333px;line-height:1.25;font-family:'Bodoni 72';-inkscape-font-specification:'Bodoni 72 Bold';white-space:pre;shape-inside:url(#rect280171)" />
          <text
             xml:space="preserve"
             transform="matrix(0.98303415,0,0,1,-25.887661,-110.99999)"
             id="text286236"
             style="font-weight:bold;font-size:29.3333px;line-height:1.25;font-family:'Bodoni 72';-inkscape-font-specification:'Bodoni 72 Bold';white-space:pre;shape-inside:url(#rect286238)" />
          <text
             xml:space="preserve"
             transform="matrix(0.98303415,0,0,1,-25.887661,-12.99999)"
             id="text292578"
             style="font-weight:bold;font-size:52px;line-height:1.25;font-family:'Bodoni 72';-inkscape-font-specification:'Bodoni 72 Bold';white-space:pre;shape-inside:url(#rect292580)"><tspan
               x="4"
               y="-55.335983"
               id="tspan4200"><tspan
                 dx="0 0 0 0 0 0 0 0 -5 5 0 0 0 0 0 0 0 -5 5"
                 id="tspan4198">Contract Software Bureau</tspan></tspan></text>
        </g>
        <text
           xml:space="preserve"
           transform="matrix(0.94976633,0,0,0.87789004,249.46162,129.00205)"
           id="text304805"
           style="font-weight:bold;font-size:41.0204px;line-height:1.25;font-family:'Bodoni 72';-inkscape-font-specification:'Bodoni 72 Bold';letter-spacing:0.99061px;word-spacing:4.95305px;white-space:pre;shape-inside:url(#rect304807)"><tspan
             x="-53"
             y="4.0702251"
             id="tspan4204"><tspan
               dx="0 0 0 0 0 0 0 0 0 0 -4.9530463 4.9530535 0 0 0 0 0 0 0 -4.9530387 4.9530535 0 0 0 0 0 -4.9530387 4.9530535"
               style="font-weight:normal;-inkscape-font-specification:'Bodoni 72, ';fill:#fbb335"
               id="tspan4202">Simplifies Contract Expert Task</tspan></tspan></text>
        <g
           transform="matrix(6.0530342,0,0,-6.0532287,-1613.2473,2248.1389)"
           id="g579"
           inkscape:transform-center-x="-4.7895716"
           inkscape:transform-center-y="-158.05978">
          <g
             id="g673"
             style="fill:#f8ab1d;fill-opacity:1"
             transform="translate(-12,22.5)">
            <path
               id="path38"
               style="fill:#f8ab1d;fill-opacity:1;fill-rule:nonzero;stroke:none"
               d="m 285.3457,328.63818 c 0.52637,-1.63623 1.34766,-3.11377 2.38086,-4.27636 l 0.0381,-0.0425 c 1.69629,-1.88672 3.85351,-2.88623 6.23926,-2.89161 h 0.0996 0.0137 l 0.0381,-0.32519 c -0.0176,-0.002 -0.0371,-0.002 -0.0537,-0.002 h -0.0976 c -2.45996,0.005 -4.68164,1.02197 -6.43457,2.9458 v 0 l -0.0498,0.0542 c -1.08008,1.20361 -1.94043,2.73779 -2.48535,4.43799 l 0.31152,0.10009 z" />
            <path
               id="path40"
               style="fill:#f8ab1d;fill-opacity:1;fill-rule:nonzero;stroke:none"
               d="m 289.49512,329.44043 c 0.21484,-1.61328 0.55957,-3.0542 1.02148,-4.28223 0.9043,-2.40234 2.16406,-3.72802 3.55078,-3.73047 h 0.0361 0.0137 l 0.0381,-0.32519 c -0.0166,-0.002 -0.0371,-0.002 -0.0537,-0.002 h -0.0342 c -1.5332,0.003 -2.90234,1.40283 -3.85742,3.94238 -0.47168,1.25098 -0.82129,2.7168 -1.04004,4.354 l 0.3252,0.0439 z" />
            <path
               id="path42"
               style="fill:#f8ab1d;fill-opacity:1;fill-rule:nonzero;stroke:none"
               d="m 294.18262,325.6499 c 0.0127,0 0.0254,0 0.04,0 1.26562,-0.002 2.49121,-0.12207 3.64355,-0.35449 l -0.0654,-0.32227 c -1.12988,0.22852 -2.33496,0.34668 -3.5791,0.34913 -1.33301,9.7e-4 -2.61816,-0.12598 -3.82324,-0.38282 -1.00684,-0.21435 -1.91114,-0.51074 -2.68555,-0.87744 l -0.0352,-0.0161 c -0.29296,-0.14014 -0.5664,-0.29102 -0.8125,-0.44727 l -0.17773,0.27588 c 0.26758,0.17139 0.56543,0.33399 0.88281,0.48389 l 0.0361,0.0156 c 0.79003,0.3711 1.70507,0.66846 2.72265,0.88623 1.2168,0.25879 2.51367,0.38965 3.85352,0.38965" />
            <path
               id="path44"
               style="fill:#f8ab1d;fill-opacity:1;fill-rule:nonzero;stroke:none"
               d="m 294.15723,329.87354 c 0.0273,0 0.0547,0 0.084,0 1.62891,-0.004 3.21582,-0.0996 4.7168,-0.28711 1.52148,-0.18897 2.91015,-0.46387 4.12402,-0.81641 0.75293,-0.21875 1.42578,-0.46289 2.00098,-0.72852 l -0.1377,-0.29882 c -0.55957,0.2583 -1.21679,0.49804 -1.95508,0.7124 -1.19824,0.34814 -2.56835,0.61914 -4.07324,0.80566 -1.48633,0.18506 -3.06054,0.28076 -4.67773,0.28418 -1.68262,0.003 -3.33008,-0.0937 -4.88672,-0.28906 -1.52539,-0.19238 -2.90918,-0.46924 -4.11621,-0.82568 -0.68653,-0.20215 -1.30567,-0.42823 -1.83985,-0.67041 l -0.13476,0.2998 c 0.54687,0.24756 1.18066,0.47852 1.88183,0.68555 1.22266,0.36084 2.625,0.64209 4.16895,0.83593 1.54395,0.19385 3.1748,0.29249 4.84473,0.29249" />
            <g
               id="g643"
               style="fill:#f8ab1d;fill-opacity:1">
              <path
                 d="m 291.74316,321.54443 c 0.69629,-0.14355 1.40528,-0.22558 2.10938,-0.24316 0.082,-0.002 0.16406,-0.004 0.24512,-0.004 h 0.0459 c 0.75098,-0.001 1.50196,0.0669 2.23243,0.2041 l 0.0264,0.005 c 1.90137,0.35839 3.70899,1.19043 5.22657,2.4082 1.35351,1.0835 2.47168,2.47363 3.23828,4.02051 0.81836,1.64648 1.23633,3.42236 1.24023,5.27734 0.003,1.89258 -0.42285,3.7041 -1.26855,5.38232 -0.80078,1.59375 -1.97364,3.01368 -3.39063,4.10547 -1.77929,1.37061 -3.89746,2.2085 -6.13086,2.42041 -0.37597,0.0371 -0.7539,0.0557 -1.12597,0.0562 -0.43848,0.002 -0.86914,-0.022 -1.28809,-0.0679 -2.18457,-0.22999 -4.26367,-1.06104 -6.01074,-2.40479 -1.41406,-1.08838 -2.58594,-2.50342 -3.38867,-4.09229 -0.8418,-1.66748 -1.27246,-3.46826 -1.27539,-5.35253 -0.004,-1.84522 0.40234,-3.61475 1.20703,-5.25879 0.75586,-1.54785 1.86425,-2.9419 3.2041,-4.03077 1.46582,-1.19384 3.21484,-2.02929 5.05762,-2.4165 h 0.0254 l 0.0205,-0.009 m 2.42481,-0.64062 h -0.0244 -0.0478 c -0.084,0 -0.1709,9.8e-4 -0.25488,0.004 -0.72754,0.0186 -1.46289,0.10303 -2.18359,0.25147 l -0.0215,0.004 c -1.91113,0.39844 -3.72558,1.2627 -5.24511,2.50098 -1.38379,1.12451 -2.52833,2.56543 -3.30762,4.16406 -0.83203,1.69776 -1.25196,3.52588 -1.24903,5.43213 0.004,1.94629 0.44825,3.80567 1.32129,5.52881 0.82715,1.64111 2.03711,3.10254 3.49707,4.22705 1.80469,1.38867 3.9502,2.24756 6.20899,2.48438 0.43262,0.0469 0.87597,0.0708 1.33008,0.0693 0.38476,-9.7e-4 0.77636,-0.019 1.16308,-0.0571 2.30567,-0.21875 4.4961,-1.08349 6.33399,-2.50146 1.46289,-1.12744 2.6748,-2.59375 3.50293,-4.23926 0.87304,-1.73535 1.31347,-3.60498 1.30957,-5.55957 -0.004,-1.91699 -0.43457,-3.75098 -1.28125,-5.45312 -0.79102,-1.59571 -1.94727,-3.03223 -3.34375,-4.15235 -1.56153,-1.25097 -3.41895,-2.10888 -5.37305,-2.48193 l -0.0176,-0.008 -0.0312,-9.8e-4 c -0.74902,-0.14209 -1.51855,-0.2124 -2.28613,-0.2124"
                 style="fill:#f8ab1d;fill-opacity:1;fill-rule:nonzero;stroke:none"
                 id="path34" />
              <g
                 id="g634"
                 style="fill:#f8ab1d;fill-opacity:1">
                <path
                   id="path46"
                   style="fill:#f8ab1d;fill-opacity:1;fill-rule:nonzero;stroke:none"
                   d="m 283.29004,338.60449 c 0.79492,1.59326 1.93262,2.98926 3.31934,4.09326 1.52929,1.21778 3.36035,2.08008 5.36425,2.4585 0.004,0.002 0.005,0.002 0.007,0.002 0.20019,0.008 0.4043,0.0156 0.6084,0.0225 0.28125,0.009 0.56738,0.0161 0.85547,0.0215 -1.19727,-0.48145 -2.25489,-1.94141 -3.02442,-4.01758 -0.4375,-1.19482 -0.7832,-2.59082 -1.00097,-4.12598 -1.54981,0.19336 -2.95997,0.47803 -4.16504,0.83057 -0.73536,0.21436 -1.39453,0.45508 -1.96387,0.71533" />
                <path
                   id="path48"
                   style="fill:#f8ab1d;fill-opacity:1;fill-rule:nonzero;stroke:none"
                   d="m 302.99707,337.83496 c -0.52441,1.63672 -1.34766,3.11328 -2.37793,4.27734 l -0.04,0.0415 c -1.69531,1.88672 -3.90332,3.01807 -6.28808,3.02344 h -0.0996 -0.0137 l 0.0117,0.19384 c 0.0166,10e-4 0.0361,10e-4 0.0537,0.002 l 0.0977,-9.8e-4 c 2.45801,-0.004 4.68164,-1.02149 6.43359,-2.94483 v 0 l 0.0508,-0.0537 c 1.07812,-1.2041 1.93847,-2.73828 2.48535,-4.43798 l -0.31348,-0.10108 z" />
                <path
                   id="path50"
                   style="fill:#f8ab1d;fill-opacity:1;fill-rule:nonzero;stroke:none"
                   d="m 298.84863,337.0332 c -0.21484,1.63428 -0.55859,3.09424 -1.0205,4.33789 -0.9043,2.43457 -2.167,3.85352 -3.55372,3.85645 h -0.0351 l -0.0117,-0.0776 -0.0381,0.33008 c 0.0166,9.8e-4 0.0361,9.8e-4 0.0537,9.8e-4 h 0.0342 c 1.53321,-9.8e-4 2.90137,-1.42041 3.85547,-3.99268 0.47364,-1.26758 0.82227,-2.75146 1.04102,-4.41113 l -0.3252,-0.0439 z" />
                <path
                   id="path52"
                   style="fill:#f8ab1d;fill-opacity:1;fill-rule:nonzero;stroke:none"
                   d="m 294.05273,340.82324 h -0.041 c -1.28516,0.002 -2.52832,0.12256 -3.69629,0.35645 l 0.0664,0.32129 c 1.14648,-0.22901 2.36718,-0.34717 3.63086,-0.34961 1.35253,-9.8e-4 2.65625,0.12597 3.88085,0.38281 1.01954,0.21484 1.93653,0.51074 2.72461,0.87793 l 0.0332,0.0156 c 0.29785,0.14014 0.57422,0.29102 0.82519,0.44825 l 0.17969,-0.27686 c -0.27148,-0.17139 -0.57324,-0.33398 -0.89648,-0.48437 l -0.0352,-0.0147 c -0.80176,-0.37207 -1.73145,-0.66944 -2.7627,-0.88672 -1.23437,-0.25879 -2.54882,-0.39014 -3.90918,-0.39014" />
                <path
                   id="path54"
                   style="fill:#f8ab1d;fill-opacity:1;fill-rule:nonzero;stroke:none"
                   d="m 294.18652,336.60059 h -0.082 c -1.63183,0.004 -3.21777,0.10058 -4.71777,0.28662 -1.52246,0.18896 -2.90918,0.46386 -4.12305,0.81592 -0.75586,0.21923 -1.42871,0.46386 -2.00195,0.72949 l 0.13672,0.29736 c 0.55957,-0.25732 1.21679,-0.49658 1.95508,-0.71143 1.19726,-0.34814 2.56836,-0.61914 4.07324,-0.80566 1.4873,-0.18457 3.06054,-0.28125 4.67773,-0.28369 1.68164,-0.002 3.33106,0.0947 4.88574,0.28906 1.52637,0.19141 2.91114,0.46924 4.11719,0.82569 0.6875,0.20214 1.30567,0.42822 1.83887,0.66992 l 0.13672,-0.29883 c -0.54785,-0.24902 -1.18164,-0.479 -1.88184,-0.68652 -1.22363,-0.36182 -2.62695,-0.64209 -4.16894,-0.83594 -1.54493,-0.19336 -3.17481,-0.29199 -4.84571,-0.29199" />
              </g>
            </g>
          </g>
          <g
             id="g706"
             style="fill:#254994;fill-opacity:1"
             transform="translate(-12,22.5)">
            <path
               id="path36"
               style="fill:#254994;fill-opacity:1;fill-rule:nonzero;stroke:none"
               d="m 305.05371,327.86816 c -0.78516,-1.59277 -1.91211,-2.9873 -3.2832,-4.09228 -1.51367,-1.21826 -3.32422,-2.08008 -5.30762,-2.4585 -0.004,0 -0.004,0 -0.007,0 -0.19824,-0.0107 -0.39843,-0.0171 -0.60253,-0.0234 -0.27735,-0.0103 -0.55957,-0.0166 -0.84571,-0.0229 1.18457,0.48291 2.23145,1.94238 2.99219,4.01806 0.43457,1.19483 0.77344,2.59082 0.99023,4.12647 1.53321,-0.19434 2.92872,-0.47852 4.12207,-0.83155 0.72657,-0.21337 1.37891,-0.45361 1.94141,-0.71582" />
            <path
               id="path56"
               style="fill:#254994;fill-opacity:1;fill-rule:nonzero;stroke:none"
               d="m 283.72656,332.74316 v 0.63086 h 1.18164 v -1.29199 c -0.22558,-0.18848 -0.42675,-0.31689 -0.59961,-0.38476 -0.1748,-0.0679 -0.38086,-0.10157 -0.61914,-0.10157 -0.29394,0 -0.53418,0.0605 -0.71875,0.18311 -0.18554,0.12256 -0.3291,0.3042 -0.43066,0.54639 -0.10254,0.24316 -0.15332,0.52148 -0.15332,0.83544 0,0.33106 0.0566,0.61768 0.16797,0.86182 0.11035,0.24463 0.27441,0.43067 0.48828,0.55664 0.16797,0.0982 0.39355,0.14746 0.67773,0.14746 0.27442,0 0.47852,-0.0298 0.61524,-0.0918 0.13574,-0.0605 0.24707,-0.1543 0.33691,-0.28174 0.0889,-0.12647 0.15723,-0.28858 0.20117,-0.48438 l -0.7373,-0.16064 c -0.0303,0.11377 -0.083,0.20117 -0.1543,0.2622 -0.0723,0.0601 -0.16504,0.0903 -0.27832,0.0903 -0.16699,0 -0.30078,-0.0713 -0.40234,-0.21289 -0.0977,-0.14258 -0.14746,-0.36817 -0.14746,-0.67725 0,-0.32666 0.0498,-0.56201 0.15039,-0.70117 0.10156,-0.14111 0.24219,-0.21143 0.42187,-0.21143 0.085,0 0.16602,0.0156 0.24414,0.0459 0.0781,0.0298 0.167,0.082 0.2666,0.1543 v 0.28515 h -0.51074 z" />
            <path
               id="path58"
               style="fill:#254994;fill-opacity:1;fill-rule:nonzero;stroke:none"
               d="m 286.03027,333.15381 c 0,-0.30518 0.0469,-0.52637 0.13965,-0.6582 0.0937,-0.13379 0.21973,-0.20069 0.37793,-0.20069 0.16504,0 0.29297,0.0649 0.38281,0.1958 0.0899,0.13037 0.13575,0.36621 0.13575,0.70459 0,0.28516 -0.0479,0.49463 -0.14161,0.62451 -0.0947,0.13184 -0.2207,0.19727 -0.38183,0.19727 -0.1543,0 -0.27734,-0.0664 -0.37207,-0.2002 -0.0918,-0.1333 -0.14063,-0.354 -0.14063,-0.66308 m -0.76367,0.004 c 0,0.49366 0.11133,0.87989 0.33692,1.15528 0.22558,0.2749 0.53906,0.41308 0.9414,0.41308 0.41113,0 0.72949,-0.13574 0.95117,-0.40674 0.22364,-0.27002 0.33399,-0.64843 0.33399,-1.1372 0,-0.35352 -0.0478,-0.64356 -0.14649,-0.87012 -0.0967,-0.22656 -0.23632,-0.40234 -0.41992,-0.52832 -0.18457,-0.12647 -0.41406,-0.18848 -0.68945,-0.18848 -0.2793,0 -0.50977,0.0532 -0.69141,0.16114 -0.18457,0.11035 -0.33301,0.28271 -0.44629,0.51709 -0.11328,0.23584 -0.16992,0.53027 -0.16992,0.88427" />
            <path
               id="path60"
               style="fill:#254994;fill-opacity:1;fill-rule:nonzero;stroke:none"
               d="m 288.91211,333.15381 c 0,-0.30518 0.0459,-0.52637 0.13965,-0.6582 0.0918,-0.13379 0.21777,-0.20069 0.37695,-0.20069 0.16602,0 0.29395,0.0649 0.38281,0.1958 0.0899,0.13037 0.13477,0.36621 0.13477,0.70459 0,0.28516 -0.0469,0.49463 -0.1416,0.62451 -0.0928,0.13184 -0.21973,0.19727 -0.38086,0.19727 -0.1543,0 -0.27832,-0.0664 -0.37207,-0.2002 -0.0937,-0.1333 -0.13965,-0.354 -0.13965,-0.66308 m -0.76563,0.004 c 0,0.49366 0.11231,0.87989 0.33692,1.15528 0.22656,0.2749 0.54004,0.41308 0.9414,0.41308 0.41211,0 0.7295,-0.13574 0.95215,-0.40674 0.22266,-0.27002 0.33496,-0.64843 0.33496,-1.1372 0,-0.35352 -0.0488,-0.64356 -0.14746,-0.87012 -0.0977,-0.22656 -0.23632,-0.40234 -0.42187,-0.52832 -0.1836,-0.12647 -0.41211,-0.18848 -0.68653,-0.18848 -0.28027,0 -0.51074,0.0532 -0.69433,0.16114 -0.18164,0.11035 -0.33106,0.28271 -0.44336,0.51709 -0.11426,0.23584 -0.17188,0.53027 -0.17188,0.88427" />
            <path
               id="path62"
               style="fill:#254994;fill-opacity:1;fill-rule:nonzero;stroke:none"
               d="m 291.89844,333.98877 v -1.6543 h 0.1875 c 0.16113,0 0.27246,0.0215 0.34082,0.0649 0.0664,0.043 0.12012,0.11914 0.15918,0.22803 0.0381,0.10742 0.0576,0.28272 0.0576,0.52442 0,0.32128 -0.043,0.54101 -0.1289,0.65966 -0.085,0.11817 -0.22754,0.17725 -0.42578,0.17725 h -0.19043 m -0.76563,0.68603 h 1.13672 c 0.22363,0 0.40625,-0.0366 0.54297,-0.11181 0.13867,-0.0742 0.25195,-0.18115 0.3418,-0.31983 0.0908,-0.13867 0.15625,-0.30078 0.19531,-0.48584 0.041,-0.18457 0.0615,-0.37988 0.0615,-0.58691 0,-0.32275 -0.0303,-0.57471 -0.0898,-0.75244 -0.0605,-0.17774 -0.14356,-0.32813 -0.25098,-0.44873 -0.10644,-0.12012 -0.22168,-0.2002 -0.34472,-0.23975 -0.167,-0.0557 -0.32032,-0.0825 -0.45606,-0.0825 h -1.13672 v 3.02783 z" />
            <path
               id="path64"
               style="fill:#254994;fill-opacity:1;fill-rule:nonzero;stroke:none"
               d="m 294.96973,334.6748 h 1.8916 v -0.65087 h -1.12403 v -0.52832 h 0.95997 v -0.61182 h -0.95997 v -1.23682 h -0.76757 z" />
            <path
               id="path66"
               style="fill:#254994;fill-opacity:1;fill-rule:nonzero;stroke:none"
               d="m 298.30957,332.80127 -0.27344,1.08838 -0.26855,-1.08838 h 0.54199 m 0.15918,-0.65527 h -0.86816 l -0.12012,-0.49903 h -0.78125 l 0.93066,3.02783 h 0.83399 l 0.92968,-3.02783 h -0.80175 z" />
            <path
               id="path68"
               style="fill:#254994;fill-opacity:1;fill-rule:nonzero;stroke:none"
               d="m 299.66699,334.6748 h 0.7666 v -3.02783 h -0.7666 z" />
            <path
               id="path70"
               style="fill:#254994;fill-opacity:1;fill-rule:nonzero;stroke:none"
               d="m 300.80859,334.6748 h 2.3252 v -0.74902 h -0.78125 v -2.27881 h -0.76465 v 2.27881 h -0.7793 z" />
            <path
               id="path72"
               style="fill:#254994;fill-opacity:1;fill-rule:nonzero;stroke:none"
               d="m 303.48242,334.6748 h 0.76563 v -1.06005 h 0.83496 v 1.06005 h 0.76953 v -3.02783 h -0.76953 v 1.22461 h -0.83496 v -1.22461 h -0.76563 z" />
          </g>
        </g>
      </g>
      <text
         xml:space="preserve"
         transform="matrix(0.9160497,0,0,0.84132003,14.544661,10.050053)"
         id="text142878"
         style="font-style:normal;font-variant:normal;font-weight:normal;font-stretch:normal;font-size:26.6667px;line-height:1.25;font-family:sans-serif;-inkscape-font-specification:sans-serif;white-space:pre;shape-inside:url(#rect142880)" />
      <text
         xml:space="preserve"
         style="font-weight:bold;font-size:29.8483px;line-height:1.25;font-family:sans-serif;-inkscape-font-specification:'sans-serif Bold';stroke-width:29.1285"
         x="19.206186"
         y="81.59594"
         id="text144512"
         transform="scale(1.0434674,0.9583433)"><tspan
           sodipodi:role="line"
           id="tspan144510"
           style="font-style:normal;font-variant:normal;font-weight:normal;font-stretch:normal;font-size:29.8483px;font-family:sans-serif;-inkscape-font-specification:sans-serif;fill:#fbb335;fill-opacity:1;stroke-width:29.1285"
           x="19.206186"
           y="81.59594" /></text>
      <text
         xml:space="preserve"
         transform="matrix(0.9160497,0,0,0.84132003,14.544661,10.050053)"
         id="text179320"
         style="font-weight:bold;font-size:40px;line-height:1.25;font-family:sans-serif;-inkscape-font-specification:'sans-serif Bold';white-space:pre;shape-inside:url(#rect179322)" />
      <g
         aria-label="Contract Software Bureau"
         transform="matrix(1.0434674,0,0,0.9583433,0,1.6826395)"
         id="g265970"
         style="font-weight:bold;font-size:35.1156px;line-height:1.25;-inkscape-font-specification:'sans-serif Bold';inline-size:565.972;stroke-width:29.1285">
        <text
           xml:space="preserve"
           transform="matrix(0.8778901,0,0,0.87789004,13.938779,8.7311238)"
           id="text267919"
           style="font-weight:bold;font-size:29.3333px;line-height:1.25;font-family:'Bodoni 72';-inkscape-font-specification:'Bodoni 72 Bold';white-space:pre;shape-inside:url(#rect267921)" />
        <text
           xml:space="preserve"
           transform="matrix(0.8778901,0,0,0.87789004,13.938779,8.7311238)"
           id="text273777"
           style="font-weight:bold;font-size:29.3333px;line-height:1.25;font-family:'Bodoni 72';-inkscape-font-specification:'Bodoni 72 Bold';white-space:pre;shape-inside:url(#rect273779)" />
        <text
           xml:space="preserve"
           transform="matrix(0.8778901,0,0,0.87789004,13.938779,8.7311238)"
           id="text276181"
           style="font-weight:bold;font-size:29.3333px;line-height:1.25;font-family:'Bodoni 72';-inkscape-font-specification:'Bodoni 72 Bold';white-space:pre;shape-inside:url(#rect276183)" />
      </g>
    </g>
    <text
       xml:space="preserve"
       id="text54065"
       style="font-style:normal;font-weight:normal;font-size:40px;line-height:1.25;font-family:sans-serif;white-space:pre;shape-inside:url(#rect54067);fill:#000000;fill-opacity:1;stroke:none" />
  </g>
</svg>
