<?xml version="1.0" encoding="UTF-8" standalone="no"?>
<svg
   xmlns:dc="http://purl.org/dc/elements/1.1/"
   xmlns:cc="http://creativecommons.org/ns#"
   xmlns:rdf="http://www.w3.org/1999/02/22-rdf-syntax-ns#"
   xmlns:svg="http://www.w3.org/2000/svg"
   xmlns="http://www.w3.org/2000/svg"
   xmlns:sodipodi="http://sodipodi.sourceforge.net/DTD/sodipodi-0.dtd"
   xmlns:inkscape="http://www.inkscape.org/namespaces/inkscape"
   inkscape:export-ydpi="300"
   inkscape:export-xdpi="300"
   inkscape:export-filename="E:\2021\Fiverr 2021\11 NOVEMBER\Kusagya\Rights BOQ_Logo\RightsBOQ_Final Logo\Rights BOQ_Final_Logo.png"
   version="1.1"
   id="svg10"
   xml:space="preserve"
   width="451.33334"
   height="160.33333"
   viewBox="0 0 451.33334 160.33333"
   sodipodi:docname="Rights BOQ_Final_Logo.svg"
   inkscape:version="1.0 (4035a4fb49, 2020-05-01)"><metadata
     id="metadata16"><rdf:RDF><cc:Work
         rdf:about=""><dc:format>image/svg+xml</dc:format><dc:type
           rdf:resource="http://purl.org/dc/dcmitype/StillImage" /><dc:title></dc:title></cc:Work></rdf:RDF></metadata><defs
     id="defs14" /><sodipodi:namedview
     inkscape:document-rotation="0"
     pagecolor="#ffffff"
     bordercolor="#666666"
     borderopacity="1"
     objecttolerance="10"
     gridtolerance="10"
     guidetolerance="10"
     inkscape:pageopacity="0"
     inkscape:pageshadow="2"
     inkscape:window-width="1920"
     inkscape:window-height="1001"
     id="namedview12"
     showgrid="false"
     inkscape:zoom="1.9330803"
     inkscape:cx="144.38819"
     inkscape:cy="140.04795"
     inkscape:window-x="-9"
     inkscape:window-y="-9"
     inkscape:window-maximized="1"
     inkscape:current-layer="g18" /><g
     id="g18"
     inkscape:groupmode="layer"
     inkscape:label="Rights BOQ_Logo_1B"
     transform="matrix(1.3333333,0,0,-1.3333333,-288,510.66667)"><g
       transform="translate(-12,22.5)"
       id="g346"><text
         id="text32"
         style="font-style:normal;font-variant:normal;font-weight:normal;font-stretch:normal;font-size:18.9251px;font-family:'Myriad Pro';-inkscape-font-specification:'Myriad Pro';writing-mode:lr-tb;fill:#f8ab1d;fill-opacity:1;fill-rule:nonzero;stroke:none;stroke-width:1.03378"
         transform="scale(0.97743059,-1.0230906)"
         x="250.82414"
         y="-258.66391"><tspan
           id="tspan20"
           sodipodi:role="line"
           y="-258.66391"
           x="250.82414 261.27057 271.77399 282.03174 295.96057 299.97269 306.23688 316.74026 326.22171"
           style="stroke-width:1.03378">Know the </tspan><tspan
           id="tspan22"
           sodipodi:role="line"
           y="-258.66391"
           x="330.23383 340.60324 345.03168 355.61078 366.03772 372.30191"
           style="stroke-width:1.03378">Rights</tspan><tspan
           id="tspan24"
           sodipodi:role="line"
           y="-258.66391"
           x="379.79626 383.80835 394.19818 404.7016 408.71371 421.75305 437.53656 441.96503 448.22922 454.49338 458.92188 469.42526 480.00436"
           style="stroke-width:1.03378"> on Omitting </tspan><tspan
           id="tspan26"
           sodipodi:role="line"
           y="-258.66391"
           x="484.01648 494.27383 507.3132"
           style="stroke-width:1.03378">BOQ</tspan><tspan
           style="font-style:normal;font-variant:normal;font-weight:normal;font-stretch:normal;font-family:'Myriad Pro';-inkscape-font-specification:'Myriad Pro';fill:#f8ab1d;fill-opacity:1;stroke-width:1.03378"
           id="tspan28"
           y="-258.66391"
           x="520.35254"> </tspan><tspan
           id="tspan30"
           sodipodi:role="line"
           y="-258.66391"
           x="524.36469 529.18793 535.3382 544.81964"
           style="stroke-width:1.03378">Item</tspan></text><g
         style="fill:#f8ab1d;fill-opacity:1"
         id="g673"><path
           d="m 285.3457,328.63818 c 0.52637,-1.63623 1.34766,-3.11377 2.38086,-4.27636 l 0.0381,-0.0425 c 1.69629,-1.88672 3.85351,-2.88623 6.23926,-2.89161 h 0.0996 0.0137 l 0.0381,-0.32519 c -0.0176,-0.002 -0.0371,-0.002 -0.0537,-0.002 h -0.0976 c -2.45996,0.005 -4.68164,1.02197 -6.43457,2.9458 v 0 l -0.0498,0.0542 c -1.08008,1.20361 -1.94043,2.73779 -2.48535,4.43799 l 0.31152,0.10009 z"
           style="fill:#f8ab1d;fill-opacity:1;fill-rule:nonzero;stroke:none"
           id="path38" /><path
           d="m 289.49512,329.44043 c 0.21484,-1.61328 0.55957,-3.0542 1.02148,-4.28223 0.9043,-2.40234 2.16406,-3.72802 3.55078,-3.73047 h 0.0361 0.0137 l 0.0381,-0.32519 c -0.0166,-0.002 -0.0371,-0.002 -0.0537,-0.002 h -0.0342 c -1.5332,0.003 -2.90234,1.40283 -3.85742,3.94238 -0.47168,1.25098 -0.82129,2.7168 -1.04004,4.354 l 0.3252,0.0439 z"
           style="fill:#f8ab1d;fill-opacity:1;fill-rule:nonzero;stroke:none"
           id="path40" /><path
           d="m 294.18262,325.6499 c 0.0127,0 0.0254,0 0.04,0 1.26562,-0.002 2.49121,-0.12207 3.64355,-0.35449 l -0.0654,-0.32227 c -1.12988,0.22852 -2.33496,0.34668 -3.5791,0.34913 -1.33301,9.7e-4 -2.61816,-0.12598 -3.82324,-0.38282 -1.00684,-0.21435 -1.91114,-0.51074 -2.68555,-0.87744 l -0.0352,-0.0161 c -0.29296,-0.14014 -0.5664,-0.29102 -0.8125,-0.44727 l -0.17773,0.27588 c 0.26758,0.17139 0.56543,0.33399 0.88281,0.48389 l 0.0361,0.0156 c 0.79003,0.3711 1.70507,0.66846 2.72265,0.88623 1.2168,0.25879 2.51367,0.38965 3.85352,0.38965"
           style="fill:#f8ab1d;fill-opacity:1;fill-rule:nonzero;stroke:none"
           id="path42" /><path
           d="m 294.15723,329.87354 c 0.0273,0 0.0547,0 0.084,0 1.62891,-0.004 3.21582,-0.0996 4.7168,-0.28711 1.52148,-0.18897 2.91015,-0.46387 4.12402,-0.81641 0.75293,-0.21875 1.42578,-0.46289 2.00098,-0.72852 l -0.1377,-0.29882 c -0.55957,0.2583 -1.21679,0.49804 -1.95508,0.7124 -1.19824,0.34814 -2.56835,0.61914 -4.07324,0.80566 -1.48633,0.18506 -3.06054,0.28076 -4.67773,0.28418 -1.68262,0.003 -3.33008,-0.0937 -4.88672,-0.28906 -1.52539,-0.19238 -2.90918,-0.46924 -4.11621,-0.82568 -0.68653,-0.20215 -1.30567,-0.42823 -1.83985,-0.67041 l -0.13476,0.2998 c 0.54687,0.24756 1.18066,0.47852 1.88183,0.68555 1.22266,0.36084 2.625,0.64209 4.16895,0.83593 1.54395,0.19385 3.1748,0.29249 4.84473,0.29249"
           style="fill:#f8ab1d;fill-opacity:1;fill-rule:nonzero;stroke:none"
           id="path44" /><g
           style="fill:#f8ab1d;fill-opacity:1"
           id="g643"><path
             id="path34"
             style="fill:#f8ab1d;fill-opacity:1;fill-rule:nonzero;stroke:none"
             d="m 291.74316,321.54443 c 0.69629,-0.14355 1.40528,-0.22558 2.10938,-0.24316 0.082,-0.002 0.16406,-0.004 0.24512,-0.004 h 0.0459 c 0.75098,-0.001 1.50196,0.0669 2.23243,0.2041 l 0.0264,0.005 c 1.90137,0.35839 3.70899,1.19043 5.22657,2.4082 1.35351,1.0835 2.47168,2.47363 3.23828,4.02051 0.81836,1.64648 1.23633,3.42236 1.24023,5.27734 0.003,1.89258 -0.42285,3.7041 -1.26855,5.38232 -0.80078,1.59375 -1.97364,3.01368 -3.39063,4.10547 -1.77929,1.37061 -3.89746,2.2085 -6.13086,2.42041 -0.37597,0.0371 -0.7539,0.0557 -1.12597,0.0562 -0.43848,0.002 -0.86914,-0.022 -1.28809,-0.0679 -2.18457,-0.22999 -4.26367,-1.06104 -6.01074,-2.40479 -1.41406,-1.08838 -2.58594,-2.50342 -3.38867,-4.09229 -0.8418,-1.66748 -1.27246,-3.46826 -1.27539,-5.35253 -0.004,-1.84522 0.40234,-3.61475 1.20703,-5.25879 0.75586,-1.54785 1.86425,-2.9419 3.2041,-4.03077 1.46582,-1.19384 3.21484,-2.02929 5.05762,-2.4165 h 0.0254 l 0.0205,-0.009 m 2.42481,-0.64062 h -0.0244 -0.0478 c -0.084,0 -0.1709,9.8e-4 -0.25488,0.004 -0.72754,0.0186 -1.46289,0.10303 -2.18359,0.25147 l -0.0215,0.004 c -1.91113,0.39844 -3.72558,1.2627 -5.24511,2.50098 -1.38379,1.12451 -2.52833,2.56543 -3.30762,4.16406 -0.83203,1.69776 -1.25196,3.52588 -1.24903,5.43213 0.004,1.94629 0.44825,3.80567 1.32129,5.52881 0.82715,1.64111 2.03711,3.10254 3.49707,4.22705 1.80469,1.38867 3.9502,2.24756 6.20899,2.48438 0.43262,0.0469 0.87597,0.0708 1.33008,0.0693 0.38476,-9.7e-4 0.77636,-0.019 1.16308,-0.0571 2.30567,-0.21875 4.4961,-1.08349 6.33399,-2.50146 1.46289,-1.12744 2.6748,-2.59375 3.50293,-4.23926 0.87304,-1.73535 1.31347,-3.60498 1.30957,-5.55957 -0.004,-1.91699 -0.43457,-3.75098 -1.28125,-5.45312 -0.79102,-1.59571 -1.94727,-3.03223 -3.34375,-4.15235 -1.56153,-1.25097 -3.41895,-2.10888 -5.37305,-2.48193 l -0.0176,-0.008 -0.0312,-9.8e-4 c -0.74902,-0.14209 -1.51855,-0.2124 -2.28613,-0.2124" /><g
             style="fill:#f8ab1d;fill-opacity:1"
             id="g634"><path
               d="m 283.29004,338.60449 c 0.79492,1.59326 1.93262,2.98926 3.31934,4.09326 1.52929,1.21778 3.36035,2.08008 5.36425,2.4585 0.004,0.002 0.005,0.002 0.007,0.002 0.20019,0.008 0.4043,0.0156 0.6084,0.0225 0.28125,0.009 0.56738,0.0161 0.85547,0.0215 -1.19727,-0.48145 -2.25489,-1.94141 -3.02442,-4.01758 -0.4375,-1.19482 -0.7832,-2.59082 -1.00097,-4.12598 -1.54981,0.19336 -2.95997,0.47803 -4.16504,0.83057 -0.73536,0.21436 -1.39453,0.45508 -1.96387,0.71533"
               style="fill:#f8ab1d;fill-opacity:1;fill-rule:nonzero;stroke:none"
               id="path46" /><path
               d="m 302.99707,337.83496 c -0.52441,1.63672 -1.34766,3.11328 -2.37793,4.27734 l -0.04,0.0415 c -1.69531,1.88672 -3.90332,3.01807 -6.28808,3.02344 h -0.0996 -0.0137 l 0.0117,0.19384 c 0.0166,10e-4 0.0361,10e-4 0.0537,0.002 l 0.0977,-9.8e-4 c 2.45801,-0.004 4.68164,-1.02149 6.43359,-2.94483 v 0 l 0.0508,-0.0537 c 1.07812,-1.2041 1.93847,-2.73828 2.48535,-4.43798 l -0.31348,-0.10108 z"
               style="fill:#f8ab1d;fill-opacity:1;fill-rule:nonzero;stroke:none"
               id="path48" /><path
               d="m 298.84863,337.0332 c -0.21484,1.63428 -0.55859,3.09424 -1.0205,4.33789 -0.9043,2.43457 -2.167,3.85352 -3.55372,3.85645 h -0.0351 l -0.0117,-0.0776 -0.0381,0.33008 c 0.0166,9.8e-4 0.0361,9.8e-4 0.0537,9.8e-4 h 0.0342 c 1.53321,-9.8e-4 2.90137,-1.42041 3.85547,-3.99268 0.47364,-1.26758 0.82227,-2.75146 1.04102,-4.41113 l -0.3252,-0.0439 z"
               style="fill:#f8ab1d;fill-opacity:1;fill-rule:nonzero;stroke:none"
               id="path50" /><path
               d="m 294.05273,340.82324 h -0.041 c -1.28516,0.002 -2.52832,0.12256 -3.69629,0.35645 l 0.0664,0.32129 c 1.14648,-0.22901 2.36718,-0.34717 3.63086,-0.34961 1.35253,-9.8e-4 2.65625,0.12597 3.88085,0.38281 1.01954,0.21484 1.93653,0.51074 2.72461,0.87793 l 0.0332,0.0156 c 0.29785,0.14014 0.57422,0.29102 0.82519,0.44825 l 0.17969,-0.27686 c -0.27148,-0.17139 -0.57324,-0.33398 -0.89648,-0.48437 l -0.0352,-0.0147 c -0.80176,-0.37207 -1.73145,-0.66944 -2.7627,-0.88672 -1.23437,-0.25879 -2.54882,-0.39014 -3.90918,-0.39014"
               style="fill:#f8ab1d;fill-opacity:1;fill-rule:nonzero;stroke:none"
               id="path52" /><path
               d="m 294.18652,336.60059 h -0.082 c -1.63183,0.004 -3.21777,0.10058 -4.71777,0.28662 -1.52246,0.18896 -2.90918,0.46386 -4.12305,0.81592 -0.75586,0.21923 -1.42871,0.46386 -2.00195,0.72949 l 0.13672,0.29736 c 0.55957,-0.25732 1.21679,-0.49658 1.95508,-0.71143 1.19726,-0.34814 2.56836,-0.61914 4.07324,-0.80566 1.4873,-0.18457 3.06054,-0.28125 4.67773,-0.28369 1.68164,-0.002 3.33106,0.0947 4.88574,0.28906 1.52637,0.19141 2.91114,0.46924 4.11719,0.82569 0.6875,0.20214 1.30567,0.42822 1.83887,0.66992 l 0.13672,-0.29883 c -0.54785,-0.24902 -1.18164,-0.479 -1.88184,-0.68652 -1.22363,-0.36182 -2.62695,-0.64209 -4.16894,-0.83594 -1.54493,-0.19336 -3.17481,-0.29199 -4.84571,-0.29199"
               style="fill:#f8ab1d;fill-opacity:1;fill-rule:nonzero;stroke:none"
               id="path54" /></g></g></g><g
         style="fill:#254994;fill-opacity:1"
         id="g706"><path
           d="m 305.05371,327.86816 c -0.78516,-1.59277 -1.91211,-2.9873 -3.2832,-4.09228 -1.51367,-1.21826 -3.32422,-2.08008 -5.30762,-2.4585 -0.004,0 -0.004,0 -0.007,0 -0.19824,-0.0107 -0.39843,-0.0171 -0.60253,-0.0234 -0.27735,-0.0103 -0.55957,-0.0166 -0.84571,-0.0229 1.18457,0.48291 2.23145,1.94238 2.99219,4.01806 0.43457,1.19483 0.77344,2.59082 0.99023,4.12647 1.53321,-0.19434 2.92872,-0.47852 4.12207,-0.83155 0.72657,-0.21337 1.37891,-0.45361 1.94141,-0.71582"
           style="fill:#254994;fill-opacity:1;fill-rule:nonzero;stroke:none"
           id="path36" /><path
           d="m 283.72656,332.74316 v 0.63086 h 1.18164 v -1.29199 c -0.22558,-0.18848 -0.42675,-0.31689 -0.59961,-0.38476 -0.1748,-0.0679 -0.38086,-0.10157 -0.61914,-0.10157 -0.29394,0 -0.53418,0.0605 -0.71875,0.18311 -0.18554,0.12256 -0.3291,0.3042 -0.43066,0.54639 -0.10254,0.24316 -0.15332,0.52148 -0.15332,0.83544 0,0.33106 0.0566,0.61768 0.16797,0.86182 0.11035,0.24463 0.27441,0.43067 0.48828,0.55664 0.16797,0.0982 0.39355,0.14746 0.67773,0.14746 0.27442,0 0.47852,-0.0298 0.61524,-0.0918 0.13574,-0.0605 0.24707,-0.1543 0.33691,-0.28174 0.0889,-0.12647 0.15723,-0.28858 0.20117,-0.48438 l -0.7373,-0.16064 c -0.0303,0.11377 -0.083,0.20117 -0.1543,0.2622 -0.0723,0.0601 -0.16504,0.0903 -0.27832,0.0903 -0.16699,0 -0.30078,-0.0713 -0.40234,-0.21289 -0.0977,-0.14258 -0.14746,-0.36817 -0.14746,-0.67725 0,-0.32666 0.0498,-0.56201 0.15039,-0.70117 0.10156,-0.14111 0.24219,-0.21143 0.42187,-0.21143 0.085,0 0.16602,0.0156 0.24414,0.0459 0.0781,0.0298 0.167,0.082 0.2666,0.1543 v 0.28515 h -0.51074 z"
           style="fill:#254994;fill-opacity:1;fill-rule:nonzero;stroke:none"
           id="path56" /><path
           d="m 286.03027,333.15381 c 0,-0.30518 0.0469,-0.52637 0.13965,-0.6582 0.0937,-0.13379 0.21973,-0.20069 0.37793,-0.20069 0.16504,0 0.29297,0.0649 0.38281,0.1958 0.0899,0.13037 0.13575,0.36621 0.13575,0.70459 0,0.28516 -0.0479,0.49463 -0.14161,0.62451 -0.0947,0.13184 -0.2207,0.19727 -0.38183,0.19727 -0.1543,0 -0.27734,-0.0664 -0.37207,-0.2002 -0.0918,-0.1333 -0.14063,-0.354 -0.14063,-0.66308 m -0.76367,0.004 c 0,0.49366 0.11133,0.87989 0.33692,1.15528 0.22558,0.2749 0.53906,0.41308 0.9414,0.41308 0.41113,0 0.72949,-0.13574 0.95117,-0.40674 0.22364,-0.27002 0.33399,-0.64843 0.33399,-1.1372 0,-0.35352 -0.0478,-0.64356 -0.14649,-0.87012 -0.0967,-0.22656 -0.23632,-0.40234 -0.41992,-0.52832 -0.18457,-0.12647 -0.41406,-0.18848 -0.68945,-0.18848 -0.2793,0 -0.50977,0.0532 -0.69141,0.16114 -0.18457,0.11035 -0.33301,0.28271 -0.44629,0.51709 -0.11328,0.23584 -0.16992,0.53027 -0.16992,0.88427"
           style="fill:#254994;fill-opacity:1;fill-rule:nonzero;stroke:none"
           id="path58" /><path
           d="m 288.91211,333.15381 c 0,-0.30518 0.0459,-0.52637 0.13965,-0.6582 0.0918,-0.13379 0.21777,-0.20069 0.37695,-0.20069 0.16602,0 0.29395,0.0649 0.38281,0.1958 0.0899,0.13037 0.13477,0.36621 0.13477,0.70459 0,0.28516 -0.0469,0.49463 -0.1416,0.62451 -0.0928,0.13184 -0.21973,0.19727 -0.38086,0.19727 -0.1543,0 -0.27832,-0.0664 -0.37207,-0.2002 -0.0937,-0.1333 -0.13965,-0.354 -0.13965,-0.66308 m -0.76563,0.004 c 0,0.49366 0.11231,0.87989 0.33692,1.15528 0.22656,0.2749 0.54004,0.41308 0.9414,0.41308 0.41211,0 0.7295,-0.13574 0.95215,-0.40674 0.22266,-0.27002 0.33496,-0.64843 0.33496,-1.1372 0,-0.35352 -0.0488,-0.64356 -0.14746,-0.87012 -0.0977,-0.22656 -0.23632,-0.40234 -0.42187,-0.52832 -0.1836,-0.12647 -0.41211,-0.18848 -0.68653,-0.18848 -0.28027,0 -0.51074,0.0532 -0.69433,0.16114 -0.18164,0.11035 -0.33106,0.28271 -0.44336,0.51709 -0.11426,0.23584 -0.17188,0.53027 -0.17188,0.88427"
           style="fill:#254994;fill-opacity:1;fill-rule:nonzero;stroke:none"
           id="path60" /><path
           d="m 291.89844,333.98877 v -1.6543 h 0.1875 c 0.16113,0 0.27246,0.0215 0.34082,0.0649 0.0664,0.043 0.12012,0.11914 0.15918,0.22803 0.0381,0.10742 0.0576,0.28272 0.0576,0.52442 0,0.32128 -0.043,0.54101 -0.1289,0.65966 -0.085,0.11817 -0.22754,0.17725 -0.42578,0.17725 h -0.19043 m -0.76563,0.68603 h 1.13672 c 0.22363,0 0.40625,-0.0366 0.54297,-0.11181 0.13867,-0.0742 0.25195,-0.18115 0.3418,-0.31983 0.0908,-0.13867 0.15625,-0.30078 0.19531,-0.48584 0.041,-0.18457 0.0615,-0.37988 0.0615,-0.58691 0,-0.32275 -0.0303,-0.57471 -0.0898,-0.75244 -0.0605,-0.17774 -0.14356,-0.32813 -0.25098,-0.44873 -0.10644,-0.12012 -0.22168,-0.2002 -0.34472,-0.23975 -0.167,-0.0557 -0.32032,-0.0825 -0.45606,-0.0825 h -1.13672 v 3.02783 z"
           style="fill:#254994;fill-opacity:1;fill-rule:nonzero;stroke:none"
           id="path62" /><path
           d="m 294.96973,334.6748 h 1.8916 v -0.65087 h -1.12403 v -0.52832 h 0.95997 v -0.61182 h -0.95997 v -1.23682 h -0.76757 z"
           style="fill:#254994;fill-opacity:1;fill-rule:nonzero;stroke:none"
           id="path64" /><path
           d="m 298.30957,332.80127 -0.27344,1.08838 -0.26855,-1.08838 h 0.54199 m 0.15918,-0.65527 h -0.86816 l -0.12012,-0.49903 h -0.78125 l 0.93066,3.02783 h 0.83399 l 0.92968,-3.02783 h -0.80175 z"
           style="fill:#254994;fill-opacity:1;fill-rule:nonzero;stroke:none"
           id="path66" /><path
           d="m 299.66699,334.6748 h 0.7666 v -3.02783 h -0.7666 z"
           style="fill:#254994;fill-opacity:1;fill-rule:nonzero;stroke:none"
           id="path68" /><path
           d="m 300.80859,334.6748 h 2.3252 v -0.74902 h -0.78125 v -2.27881 h -0.76465 v 2.27881 h -0.7793 z"
           style="fill:#254994;fill-opacity:1;fill-rule:nonzero;stroke:none"
           id="path70" /><path
           d="m 303.48242,334.6748 h 0.76563 v -1.06005 h 0.83496 v 1.06005 h 0.76953 v -3.02783 h -0.76953 v 1.22461 h -0.83496 v -1.22461 h -0.76563 z"
           style="fill:#254994;fill-opacity:1;fill-rule:nonzero;stroke:none"
           id="path72" /></g><path
         id="path74"
         style="fill:#f8ab1d;fill-opacity:1;fill-rule:nonzero;stroke:none"
         d="m 458.74316,315.43018 c 2.37012,1.96923 3.55372,4.57324 3.55372,7.91943 0,2.83057 -1.0586,12.06543 -14.66993,12.06543 -2.0332,0 -3.99316,-0.13184 -6.16992,-0.41455 0.0391,0.005 -0.62598,-0.0654 -0.62598,-0.0654 -1.49511,-0.15918 -3.04003,-0.32373 -4.54785,-0.32373 h -6.8125 v -4.72266 h 3.49219 c 0.62109,0 0.93555,-0.36474 0.93555,-1.08398 v -30.14649 c 0,-0.36035 -0.14551,-1.19922 -1.48828,-1.19922 h -2.93946 v -4.72265 h 19.98243 c 10.85742,0 14.7246,6.61914 14.7246,12.8125 0,4.99512 -2.5498,8.19629 -5.43457,9.88135 m -10.06543,-16.99463 c -4.91992,0 -6.99023,0.50586 -7.79589,0.80468 v 29.49854 c 1.53222,0.6084 3.91308,0.97754 5.69433,0.97754 5.65528,0 8.4043,-2.19531 8.4043,-6.71143 0,-3.30908 -2.43164,-5.62011 -5.91504,-5.62011 -1.16504,0 -3.39063,0.27294 -3.41309,0.27587 l -0.67773,0.0835 -0.50879,-0.45703 c -0.22168,-0.19922 -1.32715,-1.26465 -1.32715,-2.66553 0,-1.78027 1.07715,-3.68213 4.10156,-3.68213 l 2.29102,0.18897 1.74805,0.15576 c 5.03906,0 5.58203,-4.29199 5.58203,-6.13721 0,-2.3208 -1.70996,-6.71142 -8.1836,-6.71142 z" /><path
         id="path76"
         style="fill:#f8ab1d;fill-opacity:1;fill-rule:nonzero;stroke:none"
         d="m 486.63672,335.41504 c -11.81836,0 -19.75977,-8.79492 -19.75977,-21.88477 0,-12.20703 8.75196,-21.76953 19.92578,-21.76953 11.7002,0 19.8711,8.95215 19.8711,21.76953 0,13.29444 -7.86524,21.88477 -20.03711,21.88477 m 0.28223,-37.78223 c -8.62989,0.0576 -12.55957,8.28028 -12.55957,15.89746 0.0937,7.45655 3.33593,16.18604 12.16699,16.18604 9.34863,0 12.66601,-8.71924 12.66601,-16.18604 0,-7.91211 -3.7959,-15.89453 -12.27343,-15.89746 z" /><path
         id="path94"
         style="fill:#254994;fill-opacity:1;fill-rule:nonzero;stroke:none"
         d="m 250.4043,297.57227 v 32.66748 l -5.89551,4.75048 h 10.31738 c 0,0 7.48242,0.0586 13.49219,0.0586 7.36914,0 11.73437,-4.92627 11.73437,-10.43945 0,-4.6919 -2.15429,-9.14893 -10.43066,-11.43653 l 16.21289,-22.99023 c -9.80762,0.0586 -20.18066,16.18652 -26.41699,22.57959 h -1.07715 v -14.95557 l 6.17871,-4.92578 h -20.01074 l 5.89551,4.69141 m 7.93652,34.42675 v -16.65625 c 6.40527,0 13.26465,0 13.26465,8.38672 0,3.22608 -1.18945,6.04102 -3.40039,7.15528 -2.09766,1.17285 -4.76172,1.11425 -8.27735,1.11425 z" /><path
         id="path96"
         style="fill:#254994;fill-opacity:1;fill-rule:nonzero;stroke:none"
         d="m 318.0332,320.51074 h 0.39649 c -1.30371,2.32422 -1.7002,5.4419 -1.7002,6.97266 0,1.53027 0.39649,2.83447 1.19043,3.74121 0.73633,1.02051 1.98438,1.70068 3.40137,1.70068 2.38086,0 4.25098,-1.8706 4.25098,-4.25146 0,-2.38086 -1.87012,-4.25147 -4.25098,-4.25147 -0.85059,0 -1.64356,0.22657 -2.26758,0.62354 0.0566,-0.96387 0.2832,-1.92774 0.62402,-2.89111 0.22657,-0.68067 0.50977,-1.3042 0.84961,-1.81446 5.72559,-0.79345 9.1836,-4.3081 9.1836,-9.35351 0,-5.49854 -4.42188,-9.12647 -10.99805,-9.52393 l -3.23047,-1.9834 c 4.25196,-1.64355 8.55957,-3.28808 11.22461,-4.59179 3.23047,-1.64356 4.1377,-3.62793 4.1377,-6.00879 0,-4.81836 -6.12207,-9.35352 -14.56934,-9.35352 -6.85937,0 -12.86719,2.38086 -12.86719,6.97266 0,4.36523 6.1211,6.40527 10.42969,7.08593 -2.55078,1.01954 -4.93164,1.92774 -5.66797,2.26758 v 1.81348 l 3.6836,1.70019 3.45898,2.21094 c -6.00977,0.62403 -10.03418,4.13867 -10.03418,9.41065 0,5.78222 5.49902,9.52392 12.75488,9.52392 m -0.79394,-38.60449 c 4.36523,0 7.54004,1.87109 7.54004,4.42188 0,2.38085 -2.60742,3.74023 -4.64844,4.70507 l -3.45898,1.47364 c -3.79688,-0.45411 -6.97266,-3.23145 -7.0293,-5.10254 -0.11328,-3.06055 3.51562,-5.49805 7.59668,-5.49805 m 0.28418,21.99414 c 3.40039,0 4.81836,2.66504 4.81836,7.08643 0,4.47851 -1.41797,7.14306 -4.81836,7.14306 -3.40235,0 -4.81836,-2.66455 -4.81836,-7.14306 0,-4.42139 1.41601,-7.08643 4.81836,-7.08643 z" /><path
         id="path98"
         style="fill:#254994;fill-opacity:1;fill-rule:nonzero;stroke:none"
         d="m 342.30469,311.78076 v -15.02295 l 4.42187,-3.96777 h -15.30664 l 4.13867,4.02441 v 29.25147 l -4.08203,1.98437 10.88477,7.25586 -0.0566,-18.99023 c 1.81445,2.66406 4.42187,4.19482 8.50293,4.19482 5.38574,0 9.18359,-3.40136 9.18359,-9.86377 l -0.0566,-13.88916 4.4209,-3.96777 h -15.30469 l 4.08106,3.96777 0.0566,12.18848 c 0,3.00439 -0.16993,4.3081 -1.02051,5.61182 -0.79297,1.24755 -2.21094,1.87109 -4.25195,1.87109 -4.02442,0 -5.27149,-3.06152 -5.61133,-4.64844 z" /><path
         id="path100"
         style="fill:#254994;fill-opacity:1;fill-rule:nonzero;stroke:none"
         d="m 418.58008,318.91406 4.4209,2.35547 0.0566,-11.23193 c -1.24707,2.19092 -2.66407,4.1084 -4.76172,5.69775 -1.30371,1.09619 -3.34473,1.75342 -4.875,1.75342 -2.72168,0 -4.70508,-1.15088 -4.70508,-3.2876 0,-1.69873 2.20996,-2.73926 5.61231,-3.56103 5.89453,-1.42432 9.69335,-3.12305 9.69335,-9.36866 0,-3.67187 -3.0039,-8.43945 -9.46679,-8.43945 -2.94727,0 -5.04492,0.71289 -6.63281,1.58985 l -4.25196,-2.02735 -0.0566,12.21875 c 1.81445,-2.68555 3.34473,-5.47949 5.89649,-7.39648 1.58691,-1.15137 3.11718,-1.3711 5.1582,-1.3711 1.87109,0 4.25195,1.09571 4.25195,3.34278 0,3.12304 -3.91211,3.78125 -6.57617,4.3291 -5.32812,1.0957 -8.61719,3.28711 -8.61719,8.65625 0,5.36963 4.3086,8.27392 9.29688,8.27392 1.92773,0 4.08203,-0.7124 5.55664,-1.53369 z" /><path
         id="path102"
         style="fill:#254994;fill-opacity:1;fill-rule:nonzero;stroke:none"
         d="m 292.19531,296.75781 v 16.15674 l -4.08105,2.09717 10.88379,4.63281 v -22.88672 l 4.36523,-3.96777 h -15.24902 z" /><path
         id="path104"
         style="fill:#f8ab1d;fill-opacity:1;fill-rule:nonzero;stroke:none"
         d="m 510.27051,312.95654 c 0,-8.68701 5.1748,-18.78466 11.84765,-18.78466 0.542,0 0.99512,0.11621 1.3877,0.29101 -0.21484,-0.60937 -0.28711,-1.1875 -0.28711,-1.60351 0,-1.66602 0.86816,-3.03125 0.9668,-3.18067 l 1.09961,-1.66699 1.30078,1.52734 c 0.0176,0.0195 1.67773,1.93457 4.21972,1.93457 2.03223,0 4.42676,-1.33203 6.74317,-2.62011 2.6084,-1.4502 5.30469,-2.94922 8.03125,-2.94922 3.26074,0 5.20703,2.21289 5.20703,5.9209 v 2.33105 l -2.18262,-0.99023 c -0.50683,-0.23047 -1.40429,-0.35743 -2.52636,-0.35743 -1.542,0 -3.87305,0.98829 -5.85938,1.90235 5.96777,3.31836 10.29199,10.71045 10.29199,18.41748 0,13.53857 -7.84375,22.28662 -19.98144,22.28662 -11.54981,0 -20.25879,-9.65527 -20.25879,-22.4585 m 15.06152,-15.72802 0.04,1.14062 -1.08887,0.3418 c -4.27734,1.34668 -6.58593,8.34472 -6.58593,14.2456 0,9.88721 5.13476,16.53028 12.77636,16.53028 7.86133,0 12.55469,-6.11524 12.55469,-16.3584 0,-11.396 -7.15039,-15.43897 -13.27441,-15.43897 -2.13868,0 -3.57129,-0.45117 -4.54688,-1.08789 0.0508,0.21387 0.11914,0.4336 0.125,0.62696 z" /><path
         id="path106"
         style="fill:#254994;fill-opacity:1;fill-rule:evenodd;stroke:none"
         d="m 548.70117,295.27539 c -0.0859,0 -0.17187,0 -0.25683,0 -0.56836,0.74609 -1.50586,1.25684 -2.22559,1.86035 -0.10937,0.1709 -0.21875,0.34082 -0.32812,0.51074 -0.55079,0.35547 -1.08594,0.57618 -1.53321,1.02149 -0.47949,0.47851 -1.05664,1.27539 -1.82422,1.42383 0.0117,-0.0371 0.0244,-0.0732 0.0371,-0.10938 0.86914,-0.49121 1.33985,-1.21679 2.00586,-1.89844 0.21875,-0.10937 0.43848,-0.21875 0.65723,-0.32812 0.20801,-0.2832 0.13965,-0.62305 0.40137,-0.83887 0.37304,-0.30761 1.2207,-0.76953 1.3125,-1.31347 -0.25391,0.0469 -0.2461,0.16015 -0.50977,0.21875 -0.0244,-0.0244 -0.0488,-0.0488 -0.0723,-0.0723 0.42969,-0.61328 1.26758,-0.89453 1.38477,-1.49609 -0.0723,-0.0254 -0.14453,-0.0488 -0.21777,-0.0733 0.0361,-0.0371 0.0732,-0.0732 0.10937,-0.11035 0.0732,-0.084 0.14551,-0.16992 0.21973,-0.25488 0,-0.0361 0,-0.0732 0,-0.1084 -0.0488,0.0234 -0.0977,0.0479 -0.14649,0.0723 -0.22656,0.0967 -0.55468,0.31347 -0.62109,0.58398 0.0615,0 0.12109,0 0.18359,0 0.0606,-0.0371 0.12207,-0.0742 0.18164,-0.10937 -0.18359,0.22754 -0.47168,0.59375 -0.76562,0.6914 -0.13477,0 -0.26758,0 -0.40234,0 -0.084,0.14649 -0.16993,0.29297 -0.25489,0.43946 -0.44629,0.27148 -0.83105,0.40429 -1.16699,0.76562 -0.10156,0.10742 -0.0205,0.23438 -0.14648,0.32813 -0.10547,0.0645 -0.0742,0.0469 -0.25586,0.0371 0,0.0488 0,0.0976 0,0.14648 0.0254,0 0.0488,0 0.0732,0 -0.0498,0.14746 -0.0361,0.10742 -0.14551,0.18164 -0.0889,-0.11328 -0.0117,-0.0928 -0.18164,-0.14648 -0.39648,0.16211 -0.57519,0.59765 -0.87695,0.73046 -0.19239,0.084 -0.38281,-0.10351 -0.51074,0.10938 -0.0957,0.1582 0.0576,0.21484 -0.0361,0.32812 -0.13379,0.12207 -0.26758,0.24415 -0.40136,0.36524 -0.11036,-0.0244 -0.21973,-0.0488 -0.32911,-0.0723 0.0254,-0.0371 0.0488,-0.0742 0.0733,-0.11132 0.25976,-0.12305 0.21875,-0.33008 0.40136,-0.50977 0.58203,-0.57031 1.21973,-0.56055 1.45996,-1.42285 -0.0361,0 -0.0732,0 -0.11035,0 -0.14258,0.13769 -0.1709,0.22558 -0.4375,0.25488 0,-0.0117 0,-0.0234 0,-0.0361 0.0127,-0.0244 0.0244,-0.0478 0.0371,-0.0732 0.38867,-0.11914 0.68164,-0.51368 0.91211,-0.80274 0.12695,0.0801 0.16895,0.10645 0.40039,0.10938 0.14649,-0.10938 0.29297,-0.21875 0.43848,-0.32813 9.8e-4,-0.2793 0.0596,-0.34473 0.10937,-0.54687 -0.0127,-0.0137 -0.0244,-0.0234 -0.0361,-0.0371 -0.0606,0 -0.12305,0 -0.18262,0 -0.1582,0.13476 -0.3164,0.26758 -0.47558,0.40234 -0.0957,-0.0117 -0.19336,-0.0254 -0.29102,-0.0371 -0.13281,0.1582 -0.26758,0.31641 -0.40039,0.47461 0.0117,-0.0488 0.0234,-0.0977 0.0361,-0.14648 -0.0615,0 -0.12207,0 -0.18261,0 -0.34766,0.53222 -1.18164,0.80859 -1.75196,1.13086 -0.15332,0.0869 -1.27246,1.0039 -1.34961,1.13183 -0.0371,0.1211 -0.0732,0.24317 -0.10937,0.36426 -0.83203,0.85742 -1.89063,1.49316 -2.91992,2.15332 -0.18164,0.19434 -0.36328,0.38965 -0.54688,0.58398 -1.26953,0.93848 -2.40429,1.93067 -3.53906,2.99219 -0.45117,0.4209 -0.98437,0.86426 -1.45996,1.23926 -0.26758,0.14697 -0.53516,0.29248 -0.80274,0.43896 -0.55078,0.52588 -1.02636,1.14356 -1.56933,1.67823 -0.30274,0.29883 -0.69531,0.44531 -1.02051,0.72998 -0.48144,0.4209 -0.78808,0.99804 -1.31348,1.38672 -0.0371,0 -0.0732,0 -0.10937,0 0.0977,-0.48047 -1.66602,-1.51172 -2.00781,-1.93409 0.0371,-0.10986 0.0732,-0.21875 0.10937,-0.32861 -0.79492,0.0898 -1.93554,-1.96533 -2.51758,-2.48096 -0.67382,-0.59863 -1.27636,-1.39746 -1.82421,-2.11621 -0.292,-0.23144 -0.58399,-0.46191 -0.875,-0.69336 -0.57227,-0.53027 -0.92774,-1.09472 -1.38672,-1.75097 -0.14649,-0.0859 -0.29297,-0.1709 -0.4375,-0.25586 -0.0488,-0.1211 -0.0977,-0.24317 -0.14649,-0.36524 -0.40625,-0.40722 -1.01855,-0.81445 -1.38672,-1.34961 -0.42773,-0.62109 -1.76172,-2.28808 -2.48144,-2.37207 0,0.0361 0,0.0733 0,0.10938 0.51269,0.97363 1.43457,1.60058 1.89746,2.62793 -0.0117,0.0117 -0.0254,0.0234 -0.0371,0.0371 -0.38281,-0.31641 -0.73145,-1.11719 -1.20313,-1.27832 0,0.0361 0,0.0732 0,0.10937 0.32715,0.6084 1.89942,2.44434 1.86133,2.95606 -0.0127,0 -0.0254,0 -0.0371,0 -0.51562,-0.44727 -0.6914,-1.04981 -1.3125,-1.42383 -0.0498,0.0127 -0.0986,0.0254 -0.14648,0.0371 0,0.0723 0,0.14648 0,0.21875 0.23144,0.16211 0.54687,0.5664 0.65625,0.83887 -0.0488,-0.0117 -0.0977,-0.0244 -0.14649,-0.0361 -0.0488,-0.085 -0.0967,-0.16992 -0.1455,-0.25586 -0.22364,-0.082 -0.29785,0.004 -0.36426,-0.25488 0.0752,-0.0742 0.0488,-0.0361 0.0723,-0.18262 -0.085,0 -0.16992,0 -0.25585,0 -0.14551,-0.29297 -0.33008,-0.58007 -0.58399,-0.76562 -0.16504,0.0312 -0.10742,-0.005 -0.18164,0.10937 -0.0117,0.084 -0.0244,0.16993 -0.0371,0.25489 0.15625,0.0908 0.88965,0.99316 0.91211,1.2041 -0.30664,-0.11524 -1.35742,-1.30664 -1.56836,-1.60547 -0.0606,-0.16992 -0.12109,-0.33984 -0.18262,-0.51074 -0.13476,-0.15918 -0.41699,-0.23145 -0.54687,-0.40137 -0.24317,-0.35352 -0.48731,-0.70508 -0.72949,-1.05859 -0.1709,-0.14551 -0.34082,-0.29102 -0.51172,-0.4375 -0.24024,-0.45606 -0.44434,-1 -0.94727,-1.16797 0.0234,0.0488 0.0469,0.0977 0.0723,0.14648 0.3457,0.94238 1.18652,1.66504 1.71484,2.48145 0,0.0361 0,0.0732 0,0.1084 -0.0488,-0.0117 -0.0977,-0.0234 -0.14648,-0.0352 -0.0508,-0.24609 -0.11524,-0.35156 -0.36524,-0.40234 0,0.0732 0,0.14648 0,0.21875 0.50293,0.96289 1.78614,1.91015 2.04395,2.95605 -0.0361,-0.0127 -0.0732,-0.0244 -0.10938,-0.0361 -0.29394,-0.58789 -0.88183,-1.46094 -1.38672,-1.86133 -0.0361,0 -0.0732,0 -0.10937,0 0.43066,1.33594 1.70703,2.37305 2.44434,3.4668 1.19335,1.76757 2.43359,3.36132 3.72265,4.99853 0.29102,0.4502 0.58301,0.8999 0.875,1.3501 0.7168,0.89599 1.80469,1.70605 2.2627,2.73633 0.56933,0.14697 1.57715,1.51611 1.89648,2.00732 -0.21289,0.79639 -2.30762,2.49756 -2.88183,3.24707 -1.04297,1.36377 -2.25977,2.57373 -3.32032,3.90479 -1.15039,1.44238 -2.1914,2.92578 -3.32031,4.37793 -0.50977,0.65673 -2.4082,2.78955 -2.51758,3.54004 0.1211,0.1333 0.24317,0.26708 0.36426,0.40087 0.30371,-0.0474 0.32812,-0.21142 0.51074,-0.36474 0.0488,0 0.0977,0 0.14649,0 -0.17969,0.35498 -0.19532,0.66015 -0.4375,0.98535 0.0117,0.0606 0.0234,0.12158 0.0351,0.18213 0.0977,0.0244 0.19532,0.0483 0.29297,0.0732 0,0.0483 0,0.0972 0,0.146 -0.32812,0.0923 -0.51367,0.4956 -0.51172,0.91211 0.52735,0.0478 0.73145,-0.10254 1.16797,-0.18262 -0.0566,0.1626 -0.0596,0.25342 -0.0352,0.43799 0.0723,0 0.14453,0 0.21777,0 0.26758,-0.0972 0.4834,-0.14942 0.87598,-0.146 0,0.0122 0,0.0239 0,0.0366 -0.0801,0.10156 -0.10743,0.10645 -0.25586,0.146 0.04,0.25537 0.0879,0.44922 0.14648,0.69336 0.0117,0 0.0234,0 0.0361,0 0.21387,-0.0684 0.125,-0.18311 0.25586,-0.25586 0.13379,0 0.26758,0 0.40137,0 0.45898,-0.18994 1.16602,-0.63233 1.56836,-0.94873 1.32031,-1.03809 2.06348,-2.92871 3.1748,-4.1958 1.65528,-1.88672 3.33594,-3.73975 4.92578,-5.69239 0.48731,-0.47412 0.97364,-0.94873 1.45899,-1.42285 0.42285,-0.57422 0.87012,-1.20117 1.42285,-1.64209 0.37402,0.43262 0.66699,0.86182 1.02246,1.31348 0.38867,0.34082 0.77832,0.68115 1.16797,1.02148 0.56348,0.59522 0.93457,1.21875 1.56934,1.75147 0.0488,0.10986 0.0967,0.21924 0.14453,0.32861 0.17676,0.11377 0.24023,-0.0391 0.40234,0.146 -0.0215,0.15381 -0.0566,0.12695 0.0732,0.21875 0.13965,0.14404 0.23145,0.13769 0.47364,0.10986 -0.084,0.27344 -0.12207,0.28467 0.0371,0.51026 0.35156,0.085 0.40625,0.39453 0.69238,0.6206 0.085,-0.0244 0.1709,-0.0483 0.25683,-0.0732 0.26075,0.96094 1.38868,1.69726 2.15235,2.29883 0.66406,0.52343 1.17676,1.31054 1.75195,1.93408 0.1211,0.0488 0.24219,0.0972 0.36328,0.14599 0.12207,0.15821 0.24414,0.31641 0.36524,0.47413 0.29394,0.25293 0.62793,0.43164 0.91211,0.69384 0.49609,0.45508 1,1.47022 1.82422,1.53223 -0.0283,-0.24121 -0.0996,-0.23242 -0.18165,-0.40137 0.0488,0 0.0977,0 0.14551,0 0.25489,0.3584 0.51367,0.80469 0.87598,1.05811 0.0723,-0.0122 0.14648,-0.0244 0.21875,-0.0366 0,-0.0605 0,-0.12158 0,-0.18213 -0.0723,-0.0488 -0.14649,-0.0977 -0.21875,-0.146 0.0117,-0.0244 0.0254,-0.0488 0.0361,-0.0732 0.44141,0.10449 0.49121,0.43701 0.80371,0.62012 0.25,0.14697 1.1084,0.53711 1.34961,0.43799 0.53516,0.21777 0.66309,0.88134 1.42285,0.80273 0.0244,-0.0117 0.0498,-0.0239 0.0733,-0.0366 0,-0.0483 0,-0.0972 0,-0.14551 -0.36231,-0.19434 -1.03125,-0.7373 -1.24024,-1.09473 0.0117,-0.0122 0.0234,-0.0244 0.0361,-0.0366 0.34082,0.18018 1.57715,0.88184 1.86036,0.91211 -0.0361,-0.12158 -0.0723,-0.24316 -0.10938,-0.36474 0.0488,0 0.0977,0 0.14649,0 0.20019,0.24804 0.70605,0.58545 1.09375,0.6206 -0.0127,-0.23388 -0.0635,-0.25635 -0.14551,-0.40137 0.30957,0.13868 0.63379,0.40088 0.87597,0.62012 -0.10351,0.15723 -0.1289,0.25147 -0.0371,0.43799 0.1709,0.0361 0.33985,0.0727 0.51172,0.10938 0.0117,-0.0122 0.0234,-0.0244 0.0361,-0.0366 -0.0557,-0.28515 -0.0869,-0.38183 -0.14551,-0.65673 -0.0625,-0.0122 -0.12207,-0.0244 -0.18164,-0.0366 0.10742,-0.15966 0.0918,-0.20605 0.0723,-0.4746 -0.65722,-0.46241 -1.54882,-1.0127 -1.93457,-1.75147 0.58399,0.4624 1.16895,0.92481 1.75098,1.38721 0.16406,-0.0376 0.16016,-0.0605 0.25586,-0.146 0.1416,0.10303 0.1582,0.15772 0.40137,0.18213 0,-0.0361 0,-0.0732 0,-0.10937 -0.51075,-0.82471 -1.41504,-1.19825 -1.96973,-1.93409 -0.29102,-0.38574 -0.51465,-0.78027 -0.87695,-1.09423 -0.23047,-0.20069 -0.23633,-0.82374 -0.58301,-0.80323 -0.0615,-0.0361 -0.12207,-0.0727 -0.18164,-0.10937 0.0537,-0.51612 -0.73633,-0.71778 -1.09571,-0.94824 -0.99707,-0.64063 -1.55175,-2.18409 -2.77246,-2.4087 -0.10254,-0.32031 -1.07324,-1.3623 -1.34961,-1.60546 0.17383,-0.0527 0.0898,0.0259 0.14454,-0.146 -0.34766,-0.54736 -1.00977,-0.86377 -1.42286,-1.3501 -1.57031,-1.85205 -3.36816,-3.46142 -4.96191,-5.29053 -0.73145,-0.83886 -1.65039,-1.51709 -2.33496,-2.4082 0,-0.0244 0,-0.0488 0,-0.0732 0.3291,-0.27149 1.82324,-1.72656 1.86035,-2.11621 -0.17383,-0.0537 -0.082,0.0342 -0.10937,-0.14551 0.28027,-0.24365 0.55957,-0.48682 0.83886,-0.72998 -0.208,0.2793 -0.60937,0.45752 -0.69336,0.83887 0.55176,-0.18164 1.20801,-1.01514 1.53223,-1.45899 0,-0.0366 0,-0.0732 0,-0.10986 -0.0479,0 -0.0957,0 -0.14453,0 0.0576,-0.1167 0.0664,-0.15283 0.18164,-0.21875 0.1543,-0.0395 0.23828,0.0293 0.40234,-0.0366 0.17774,-0.51221 1.86621,-1.91358 2.33496,-2.37207 0.23243,-0.22754 0.009,-0.54395 0.58301,-0.87549 -0.0645,0.10254 -0.0791,0.0937 -0.10937,0.25537 0.0488,0 0.0976,0 0.14648,0 0.0723,-0.0727 0.14649,-0.14551 0.21875,-0.21924 -0.0723,-0.13525 0.0156,-0.0596 -0.14648,-0.10937 0.32031,-0.63721 2.41504,-2.31885 3.06445,-2.80908 0,-0.0488 0,-0.0977 0,-0.14649 -0.0606,-0.0117 -0.12109,-0.0234 -0.18164,-0.0371 0.0117,-0.0351 0.0254,-0.0723 0.0371,-0.10937 0.5957,-0.32227 0.9082,-1.0918 1.49609,-1.45899 0.10157,0.0645 0.0928,0.0791 0.25586,0.10938 0.0664,-0.94336 1.07617,-1.23438 1.64063,-1.71485 0.25683,-0.21875 0.41601,-0.59375 0.69336,-0.80273 0.77734,-0.63086 1.55664,-1.26465 2.33593,-1.89649 0.50782,-0.41992 0.81543,-0.97851 1.42383,-1.31445 0,-0.0605 0,-0.12109 0,-0.18164 z" /><path
         id="path108"
         style="fill:#2868ad;fill-opacity:1;fill-rule:evenodd;stroke:none"
         d="m 547.86133,330.81445 c -0.11524,-0.0933 -0.18555,-0.11035 -0.25586,-0.25537 0.0703,0.0366 0.33398,0.21143 0.25586,0.25537 z" /><path
         id="path110"
         style="fill:#2868ad;fill-opacity:1;fill-rule:evenodd;stroke:none"
         d="m 547.53223,330.55908 c -0.0498,-0.0488 -0.0967,-0.0976 -0.14551,-0.14551 0.12891,0.0537 0.12891,0.0918 0.14551,0.14551 z" /><path
         id="path112"
         style="fill:#2868ad;fill-opacity:1;fill-rule:evenodd;stroke:none"
         d="m 547.13184,330.26709 c -0.0254,-0.0361 -0.0498,-0.0727 -0.0752,-0.10938 0.0371,0.0366 0.0752,0.0732 0.11133,0.10938 -0.0127,0 -0.0254,0 -0.0361,0 z" /><path
         id="path114"
         style="fill:#2868ad;fill-opacity:1;fill-rule:evenodd;stroke:none"
         d="m 546.98438,330.15771 c -0.22071,-0.26318 -0.57032,-0.36474 -0.69336,-0.72949 0.0127,0 0.0254,0 0.0371,0 0.0371,0.0239 0.0723,0.0483 0.10937,0.0728 0.18262,0.21875 0.36523,0.43798 0.54688,0.65673 z" /><path
         id="path116"
         style="fill:#2868ad;fill-opacity:1;fill-rule:evenodd;stroke:none"
         d="m 513.37891,329.90234 c 0.0449,-0.16406 0.002,-0.11767 0.14648,-0.18261 -0.0508,0.14795 -0.0361,0.1084 -0.14648,0.18261 z" /><path
         id="path118"
         style="fill:#2868ad;fill-opacity:1;fill-rule:evenodd;stroke:none"
         d="m 516.69922,328.66162 c 0.0508,-0.0703 0.004,-0.022 0.0723,-0.0728 -0.0234,0.0244 -0.0479,0.0483 -0.0723,0.0728 z" /><path
         id="path120"
         style="fill:#2868ad;fill-opacity:1;fill-rule:evenodd;stroke:none"
         d="m 516.99121,328.3335 c 0.0244,-0.0244 0.0478,-0.0488 0.0732,-0.0733 -0.0254,0.0244 -0.0488,0.0488 -0.0732,0.0733 z" /><path
         id="path122"
         style="fill:#2868ad;fill-opacity:1;fill-rule:evenodd;stroke:none"
         d="m 541.87695,324.64795 c -0.0371,-0.061 -0.0723,-0.12158 -0.10937,-0.18213 0.0371,0.0239 0.0723,0.0483 0.10937,0.0727 0,0.0361 0,0.0733 0,0.10938 z" /><path
         id="path124"
         style="fill:#2868ad;fill-opacity:1;fill-rule:evenodd;stroke:none"
         d="m 540.38086,322.89648 c 0.0606,0 0.12207,0 0.18164,0 -0.0361,-0.085 -0.0723,-0.16992 -0.10937,-0.25537 -0.0117,0 -0.0234,0 -0.0352,0 -0.0615,0.0122 -0.12305,0.0244 -0.18262,0.0366 0,0.0366 0,0.0728 0,0.10938 0.0478,0.0361 0.0967,0.0732 0.14551,0.10937 z" /><path
         id="path126"
         style="fill:#2868ad;fill-opacity:1;fill-rule:evenodd;stroke:none"
         d="m 538.99414,321.69287 c -0.11523,-0.0957 -0.17383,-0.16113 -0.25488,-0.29248 0.13574,0.0864 0.20898,0.1499 0.29101,0.29248 -0.0117,0 -0.0234,0 -0.0361,0 z" /><path
         id="path128"
         style="fill:#2868ad;fill-opacity:1;fill-rule:evenodd;stroke:none"
         d="m 538.48242,321.1084 c -0.0986,-0.0972 -0.13086,-0.0918 -0.18164,-0.25537 0.0117,0 0.0244,0 0.0361,0 0,0.0244 0,0.0488 0,0.0732 0.0498,0.0606 0.0986,0.12158 0.14551,0.18213 z" /><path
         id="path130"
         style="fill:#2868ad;fill-opacity:1;fill-rule:evenodd;stroke:none"
         d="m 531.98828,314.43115 c -0.10937,-0.14599 -0.21875,-0.29199 -0.32812,-0.4375 0.1289,0.0947 0.39843,0.29639 0.47363,0.4375 -0.0478,0 -0.0967,0 -0.14551,0 z" /><path
         id="path132"
         style="fill:#2868ad;fill-opacity:1;fill-rule:evenodd;stroke:none"
         d="m 531.04004,313.40967 c -0.0127,-0.0244 -0.0254,-0.0488 -0.0361,-0.0732 0.0234,0.0244 0.0478,0.0488 0.0723,0.0732 -0.0127,0 -0.0244,0 -0.0361,0 z" /><path
         id="path134"
         style="fill:#2868ad;fill-opacity:1;fill-rule:evenodd;stroke:none"
         d="m 533.66602,309.90674 c 0.0254,-0.0732 0.0498,-0.146 0.0732,-0.21875 0.0615,-0.0244 0.12207,-0.0488 0.18262,-0.0732 -0.084,0.0976 -0.16993,0.19482 -0.25586,0.29199 z" /><path
         id="path136"
         style="fill:#2868ad;fill-opacity:1;fill-rule:evenodd;stroke:none"
         d="m 533.99512,309.54199 c 0.0557,-0.19775 0.12109,-0.21631 0.29199,-0.29199 -0.084,0.12744 -0.16797,0.20508 -0.29199,0.29199 z" /><path
         id="path138"
         style="fill:#2868ad;fill-opacity:1;fill-rule:evenodd;stroke:none"
         d="m 527.17188,309.25 c -0.0117,-0.0244 -0.0254,-0.0488 -0.0361,-0.0727 0.0771,0.0249 0.0693,-0.002 0.0361,0.0727 z" /><path
         id="path140"
         style="fill:#2868ad;fill-opacity:1;fill-rule:evenodd;stroke:none"
         d="m 526.29688,308.3374 c -0.0371,-0.0605 -0.0742,-0.12158 -0.11036,-0.18213 0.0879,0.0606 0.12207,0.0933 0.18262,0.18213 -0.0254,0 -0.0488,0 -0.0723,0 z" /><path
         id="path142"
         style="fill:#2868ad;fill-opacity:1;fill-rule:evenodd;stroke:none"
         d="m 525.67578,307.53467 c 0.0488,-0.0239 0.0967,-0.0478 0.14649,-0.0728 -0.004,-0.16064 0.002,-0.18017 -0.0733,-0.25537 -0.13769,0 -0.0957,-0.0796 -0.18261,0.0732 0.0371,0.085 0.0732,0.16992 0.10937,0.25488 z" /><path
         id="path144"
         style="fill:#2868ad;fill-opacity:1;fill-rule:evenodd;stroke:none"
         d="m 536.25781,307.27979 c 0.0488,-0.0752 0.04,-0.0586 0.10938,-0.10938 -0.0361,0.0361 -0.0732,0.0727 -0.10938,0.10938 z" /><path
         id="path146"
         style="fill:#2868ad;fill-opacity:1;fill-rule:evenodd;stroke:none"
         d="m 536.84082,306.73193 c 0.0596,-0.1123 0.12109,-0.1499 0.21973,-0.21875 -0.0733,0.0728 -0.14649,0.146 -0.21973,0.21875 z" /><path
         id="path148"
         style="fill:#2868ad;fill-opacity:1;fill-rule:evenodd;stroke:none"
         d="m 520.56641,306.5498 c -0.0596,-0.0605 -0.1211,-0.12158 -0.18164,-0.18261 0,-0.0488 0,-0.0972 0,-0.14551 0.0371,0.0117 0.0732,0.0234 0.10937,0.0361 0.0762,0.14649 0.14453,0.19385 0.0723,0.29199 z" /><path
         id="path150"
         style="fill:#2868ad;fill-opacity:1;fill-rule:evenodd;stroke:none"
         d="m 537.38867,306.29443 c 0.0605,-0.0122 0.12207,-0.0244 0.18164,-0.0366 0.0137,-0.0605 0.0254,-0.12158 0.0371,-0.18213 -0.17187,0.0479 -0.16992,0.0479 -0.21875,0.21875 z" /><path
         id="path152"
         style="fill:#2868ad;fill-opacity:1;fill-rule:evenodd;stroke:none"
         d="m 519.32617,305.0542 c -0.35351,-0.42041 -1.05859,-0.97022 -1.20312,-1.53272 0.0117,0 0.0234,0 0.0361,0 0.41309,0.49805 0.82715,0.99805 1.24121,1.49512 -0.0254,0.0127 -0.0488,0.0254 -0.0742,0.0376 z" /><path
         id="path154"
         style="fill:#2868ad;fill-opacity:1;fill-rule:evenodd;stroke:none"
         d="m 518.88867,303.74023 c -0.0127,-0.0254 -0.0234,-0.0488 -0.0361,-0.0732 0.0127,-0.0117 0.0234,-0.0244 0.0361,-0.0361 0.0254,0.0244 0.0488,0.0488 0.0732,0.0732 0,0.0107 0,0.0244 0,0.0361 -0.0244,0 -0.0479,0 -0.0732,0 z" /><path
         id="path156"
         style="fill:#2868ad;fill-opacity:1;fill-rule:evenodd;stroke:none"
         d="m 518.0498,303.48438 c -0.0615,-0.085 -0.12207,-0.16993 -0.18261,-0.25489 0.0117,0 0.0244,0 0.0371,0 0.0234,0.0127 0.0488,0.0244 0.0723,0.0361 0.0234,0.0723 0.0488,0.14648 0.0732,0.21875 z" /><path
         id="path158"
         style="fill:#2868ad;fill-opacity:1;fill-rule:evenodd;stroke:none"
         d="m 518.41406,303.15625 c -0.0723,-0.10937 -0.14648,-0.21875 -0.21875,-0.32812 0.0371,0.0117 0.0723,0.0244 0.10938,0.0361 0.0371,0.0976 0.0742,0.19433 0.10937,0.29199 z" /><path
         id="path160"
         style="fill:#2868ad;fill-opacity:1;fill-rule:evenodd;stroke:none"
         d="m 517.7207,303.12012 c -0.26757,-0.34082 -0.53515,-0.68067 -0.80273,-1.02246 0,-0.0117 0,-0.0234 0,-0.0361 0.0127,0 0.0254,0 0.0371,0 0.21582,0.12598 0.88574,0.89649 0.76562,1.0586 z" /><path
         id="path162"
         style="fill:#2868ad;fill-opacity:1;fill-rule:evenodd;stroke:none"
         d="m 517.94043,302.5 c -0.0361,-0.0488 -0.0732,-0.0977 -0.10938,-0.14648 0,-0.0605 0,-0.1211 0,-0.18164 0.0244,0.0107 0.0479,0.0234 0.0733,0.0361 0.0361,0.0605 0.0723,0.12109 0.10937,0.18262 -0.0254,0.0361 -0.0488,0.0723 -0.0732,0.10937 z" /><path
         id="path164"
         style="fill:#2868ad;fill-opacity:1;fill-rule:evenodd;stroke:none"
         d="m 516.80859,302.02539 c -0.0469,-0.0977 -0.0967,-0.19531 -0.1455,-0.29199 0.15039,0.0459 0.12793,0.0596 0.21972,0.14551 -0.0332,0.13379 0,0.0752 -0.0742,0.14648 z" /><path
         id="path166"
         style="fill:#2868ad;fill-opacity:1;fill-rule:evenodd;stroke:none"
         d="m 541.73047,301.95313 c 0.16601,-0.0322 0.1084,0.004 0.18359,-0.11133 0.0117,-0.0478 0.0234,-0.0957 0.0352,-0.14453 -0.0488,0 -0.0977,0 -0.14453,0 -0.0254,0.0117 -0.0498,0.0234 -0.0742,0.0361 0,0.0732 0,0.14551 0,0.21973 z" /><path
         id="path168"
         style="fill:#2868ad;fill-opacity:1;fill-rule:evenodd;stroke:none"
         d="m 517.64844,301.8418 c -0.0117,-0.0234 -0.0244,-0.0478 -0.0371,-0.0723 0.0254,0.0244 0.0488,0.0488 0.0742,0.0723 -0.0127,0 -0.0254,0 -0.0371,0 z" /><path
         id="path170"
         style="fill:#2868ad;fill-opacity:1;fill-rule:evenodd;stroke:none"
         d="m 541.94922,301.66016 c 0.13086,-0.0645 0.043,0.0195 0.10937,-0.10938 -0.0361,0 -0.0723,0 -0.10937,0 0,0.0371 0,0.0732 0,0.10938 z" /><path
         id="path172"
         style="fill:#2868ad;fill-opacity:1;fill-rule:evenodd;stroke:none"
         d="m 516.48047,301.58789 c -0.3291,-0.49023 -1.10938,-1.10351 -1.16797,-1.67871 0.42188,0.042 0.93945,1.04785 1.02246,1.38574 0.0967,0.0371 0.19434,0.0742 0.29199,0.11035 -0.0449,0.16309 -0.002,0.11719 -0.14648,0.18262 z" /><path
         id="path174"
         style="fill:#2868ad;fill-opacity:1;fill-rule:evenodd;stroke:none"
         d="m 514.91211,301.22266 c -0.0127,-0.0244 -0.0254,-0.0488 -0.0371,-0.0742 0.0117,-0.01 0.0244,-0.0234 0.0371,-0.0352 0.0117,0 0.0234,0 0.0361,0 0.0127,0.0352 0.0244,0.0723 0.0361,0.10938 -0.0234,0 -0.0488,0 -0.0723,0 z" /><path
         id="path176"
         style="fill:#2868ad;fill-opacity:1;fill-rule:evenodd;stroke:none"
         d="m 517.1377,301.22266 c -0.14356,-0.14258 -0.2754,-0.19336 -0.47461,-0.292 0.0127,-0.0244 0.0244,-0.0498 0.0361,-0.0732 0.18848,-0.008 0.16406,-0.0273 0.29199,0.0371 0.0478,0.10938 0.0977,0.21875 0.14649,0.32813 z" /><path
         id="path178"
         style="fill:#2868ad;fill-opacity:1;fill-rule:evenodd;stroke:none"
         d="m 514.76563,300.9668 c -0.0488,-0.0605 -0.0977,-0.1211 -0.14649,-0.18164 0.12012,0.0605 0.11719,0.0742 0.18359,0.18164 -0.0127,0 -0.0244,0 -0.0371,0 z" /><path
         id="path180"
         style="fill:#2868ad;fill-opacity:1;fill-rule:evenodd;stroke:none"
         d="m 514.58398,300.74805 c -0.0127,-0.0234 -0.0254,-0.0488 -0.0371,-0.0723 0.0244,0.0234 0.0488,0.0488 0.0723,0.0723 -0.0117,0 -0.0234,0 -0.0352,0 z" /><path
         id="path182"
         style="fill:#2868ad;fill-opacity:1;fill-rule:evenodd;stroke:none"
         d="m 514.32813,300.45703 c -0.0371,-0.0859 -0.0733,-0.1709 -0.10938,-0.25586 0.0117,0 0.0234,0 0.0361,0 0.0615,0.0488 0.12207,0.0967 0.18262,0.14453 0,0.0371 0,0.0742 0,0.11133 -0.0371,0 -0.0732,0 -0.10937,0 z" /><path
         id="path184"
         style="fill:#2868ad;fill-opacity:1;fill-rule:evenodd;stroke:none"
         d="m 516.48047,300.41992 c -0.14649,-0.26855 -0.34961,-0.13379 -0.51172,-0.36523 0.14063,-0.0781 0.14258,-0.10254 0.11133,-0.25586 0.1875,0.11328 0.43555,0.41211 0.40039,0.62109 z" /><path
         id="path186"
         style="fill:#2868ad;fill-opacity:1;fill-rule:evenodd;stroke:none"
         d="m 517.61133,300.31055 c 0,-0.0244 0,-0.0488 0,-0.0732 0,0.0244 0,0.0488 0,0.0732 z" /><path
         id="path188"
         style="fill:#2868ad;fill-opacity:1;fill-rule:evenodd;stroke:none"
         d="m 539.06641,300.12793 c 0.0703,-0.15527 0.15039,-0.21191 0.29297,-0.29199 -0.0684,0.18359 -0.12891,0.20898 -0.29297,0.29199 z" /><path
         id="path190"
         style="fill:#2868ad;fill-opacity:1;fill-rule:evenodd;stroke:none"
         d="m 517.32031,299.90918 c -0.32031,-0.43848 -0.76562,-0.89844 -0.94922,-1.45996 0.0244,0.0117 0.0488,0.0234 0.0733,0.0371 0.11816,0.35351 1.01171,1.23828 0.87597,1.42285 z" /><path
         id="path192"
         style="fill:#2868ad;fill-opacity:1;fill-rule:evenodd;stroke:none"
         d="m 514.29102,299.4707 c -0.0234,-0.0488 -0.0488,-0.0967 -0.0723,-0.1455 0.0234,0.0127 0.0488,0.0244 0.0723,0.0361 0,0.0371 0,0.0732 0,0.10937 z" /><path
         id="path194"
         style="fill:#2868ad;fill-opacity:1;fill-rule:evenodd;stroke:none"
         d="m 540.125,299.17969 c 0.0596,-0.125 0.0596,-0.12207 0.18359,-0.1836 -0.0644,0.10352 -0.082,0.11914 -0.18359,0.1836 z" /><path
         id="path196"
         style="fill:#2868ad;fill-opacity:1;fill-rule:evenodd;stroke:none"
         d="m 540.49023,298.81445 c 0.0234,-0.0117 0.0488,-0.0244 0.0723,-0.0371 -0.0234,0.0127 -0.0488,0.0254 -0.0723,0.0371 z" /><path
         id="path198"
         style="fill:#2868ad;fill-opacity:1;fill-rule:evenodd;stroke:none"
         d="m 515.20313,298.5957 c 0.0742,-0.0117 0.14648,-0.0234 0.21875,-0.0371 0,-0.0723 0,-0.1455 0,-0.21875 -0.0234,0 -0.0479,0 -0.0723,0 -0.0977,-0.0117 -0.19531,-0.0254 -0.29199,-0.0351 0,0.0351 0,0.0723 0,0.1084 0,0.0127 0,0.0244 0,0.0361 0.0488,0.0488 0.0967,0.0977 0.14551,0.14648 z" /><path
         id="path200"
         style="fill:#2868ad;fill-opacity:1;fill-rule:evenodd;stroke:none"
         d="m 540.74512,298.5957 c 0.085,-0.16211 0.14062,-0.19824 0.3291,-0.25586 -0.0967,0.12891 -0.1709,0.18262 -0.3291,0.25586 z" /><path
         id="path202"
         style="fill:#2868ad;fill-opacity:1;fill-rule:evenodd;stroke:none"
         d="m 542.24121,298.5957 c 0.0244,-0.0234 0.0488,-0.0488 0.0732,-0.0732 -0.0244,0.0244 -0.0488,0.0498 -0.0732,0.0732 z" /><path
         id="path204"
         style="fill:#2868ad;fill-opacity:1;fill-rule:evenodd;stroke:none"
         d="m 513.34277,298.30469 c -0.0361,-0.0625 -0.0732,-0.12305 -0.10839,-0.1836 0.0352,0.0244 0.0723,0.0488 0.10839,0.0723 0.0127,0.0371 0.0244,0.0742 0.0361,0.11133 -0.0117,0 -0.0234,0 -0.0361,0 z" /><path
         id="path206"
         style="fill:#2868ad;fill-opacity:1;fill-rule:evenodd;stroke:none"
         d="m 541.11133,298.30469 c 0.0752,-0.16797 0.16699,-0.21289 0.32715,-0.29297 -0.0713,0.16406 -0.15332,0.23047 -0.32715,0.29297 z" /><path
         id="path208"
         style="fill:#2868ad;fill-opacity:1;fill-rule:evenodd;stroke:none"
         d="m 541.83984,298.23047 c 0.0488,-0.0244 0.0977,-0.0488 0.14649,-0.0723 -0.0488,0.0234 -0.0977,0.0478 -0.14649,0.0723 z" /><path
         id="path210"
         style="fill:#2868ad;fill-opacity:1;fill-rule:evenodd;stroke:none"
         d="m 512.43164,298.19336 c 0.0352,0 0.0723,0 0.1084,0 -0.0732,-0.15625 -0.14551,-0.31543 -0.21973,-0.47363 -0.0478,0 -0.0967,0 -0.14648,0 -0.01,0.0117 -0.0234,0.0244 -0.0352,0.0361 0,0.0615 0,0.12207 0,0.18262 0.0977,0.085 0.19434,0.1709 0.29297,0.25488 z" /><path
         id="path212"
         style="fill:#2868ad;fill-opacity:1;fill-rule:evenodd;stroke:none"
         d="m 514.98438,297.86523 c -0.20508,0.0147 -0.23145,0.0352 -0.32813,0.14649 0.0117,0.0488 0.0244,0.0977 0.0371,0.14648 0.0606,0 0.12109,0 0.18164,0 0.0371,-0.0371 0.0732,-0.0742 0.10938,-0.11132 0,-0.0596 0,-0.1211 0,-0.18165 z" /><path
         id="path214"
         style="fill:#2868ad;fill-opacity:1;fill-rule:evenodd;stroke:none"
         d="m 542.8252,298.12109 c 0.0244,-0.0244 0.0498,-0.0488 0.0732,-0.0742 -0.0508,0.0723 -0.004,0.0234 -0.0732,0.0742 z" /><path
         id="path216"
         style="fill:#2868ad;fill-opacity:1;fill-rule:evenodd;stroke:none"
         d="m 513.12305,298.04688 c -0.0723,-0.0957 -0.14453,-0.19336 -0.21875,-0.29102 0.13965,0.0811 0.24023,0.15039 0.21875,0.29102 z" /><path
         id="path218"
         style="fill:#2868ad;fill-opacity:1;fill-rule:evenodd;stroke:none"
         d="m 541.51172,297.97461 c 0.085,-0.0723 0.16992,-0.14551 0.25586,-0.21875 -0.0859,0.0732 -0.1709,0.14648 -0.25586,0.21875 z" /><path
         id="path220"
         style="fill:#2868ad;fill-opacity:1;fill-rule:evenodd;stroke:none"
         d="m 543.00781,297.97461 c 0.0488,-0.0361 0.0967,-0.0723 0.14453,-0.10938 0,-0.0859 0,-0.16992 0,-0.25488 0.0137,0 0.0254,0 0.0381,0 0.0244,0 0.0479,0 0.0732,0 0.0117,0.0127 0.0234,0.0244 0.0371,0.0361 0,0.0371 0,0.0733 0,0.10938 -0.11426,0.10352 -0.11621,0.16406 -0.29297,0.21875 z" /><path
         id="path222"
         style="fill:#2868ad;fill-opacity:1;fill-rule:evenodd;stroke:none"
         d="m 514.36426,297.93848 c 0.0361,0 0.0732,0 0.1084,0 0.0254,-0.0244 0.0498,-0.0479 0.0742,-0.0733 -0.0469,-0.22363 -0.10352,-0.32226 -0.25586,-0.4375 -0.0361,0 -0.0723,0 -0.10938,0 0,0.0605 0,0.1211 0,0.18262 0.0606,0.10938 0.12207,0.21875 0.18262,0.32813 z" /><path
         id="path224"
         style="fill:#2868ad;fill-opacity:1;fill-rule:evenodd;stroke:none"
         d="m 513.81641,297.86523 c 0.0371,0 0.0742,0 0.11132,0 -0.0576,-0.15332 0.006,-0.0879 -0.14648,-0.1455 0.0117,0.0498 0.0234,0.0976 0.0352,0.1455 z" /><path
         id="path226"
         style="fill:#2868ad;fill-opacity:1;fill-rule:evenodd;stroke:none"
         d="m 512.86816,297.71973 c -0.0479,-0.0733 -0.0967,-0.14551 -0.1455,-0.21778 0.0361,0.01 0.0723,0.0234 0.10937,0.0352 0.0117,0.0606 0.0234,0.12109 0.0361,0.18262 z" /><path
         id="path228"
         style="fill:#2868ad;fill-opacity:1;fill-rule:evenodd;stroke:none"
         d="m 544.06641,297.71973 c -0.0254,-0.0127 -0.0488,-0.0244 -0.0733,-0.0361 0.0117,-0.0371 0.0244,-0.0732 0.0361,-0.10937 0.12109,-0.0127 0.24316,-0.0254 0.36523,-0.0371 0.0234,-0.13867 0.0371,-0.17676 0.10938,-0.25488 0.0117,0 0.0234,0 0.0361,0 0,0.0732 0,0.1455 0,0.21972 -0.0244,0.0352 -0.0478,0.0723 -0.0732,0.1084 -0.13282,0.0361 -0.26758,0.0732 -0.40039,0.10938 z" /><path
         id="path230"
         style="fill:#2868ad;fill-opacity:1;fill-rule:evenodd;stroke:none"
         d="m 513.59766,297.64648 c 0.0488,0 0.0976,0 0.14648,0 0,-0.0488 0,-0.0976 0,-0.14453 -0.0488,0 -0.0977,0 -0.14648,0 0,0.0469 0,0.0957 0,0.14453 z" /><path
         id="path232"
         style="fill:#2868ad;fill-opacity:1;fill-rule:evenodd;stroke:none"
         d="m 511.88281,297.42773 c 0.0371,0 0.0732,0 0.10938,0 0,-0.0488 0,-0.0976 0,-0.1455 -0.0361,0 -0.0723,0 -0.10938,0 0,0.0478 0,0.0967 0,0.1455 z" /><path
         id="path234"
         style="fill:#2868ad;fill-opacity:1;fill-rule:evenodd;stroke:none"
         d="m 542.20508,297.39063 c 0.16992,-0.14649 0.33984,-0.29102 0.51074,-0.4375 -0.1709,0.14648 -0.34082,0.29101 -0.51074,0.4375 z" /><path
         id="path236"
         style="fill:#2868ad;fill-opacity:1;fill-rule:evenodd;stroke:none"
         d="m 546.40039,296.625 c -0.24805,0.01 -0.4082,0.10352 -0.50976,0.25586 -0.0127,0.084 -0.0254,0.16992 -0.0371,0.25488 0.0488,-0.0244 0.0977,-0.0478 0.14648,-0.0732 0.13281,-0.0859 0.26758,-0.16992 0.40039,-0.25391 0,-0.0625 0,-0.12304 0,-0.18359 z" /><path
         id="path238"
         style="fill:#2868ad;fill-opacity:1;fill-rule:evenodd;stroke:none"
         d="m 514.83887,297.02637 c 0.0605,0 0.12207,0 0.18261,0 -0.0137,-0.0732 -0.0234,-0.14551 -0.0371,-0.21778 -0.16211,-0.0586 -0.18555,-0.14453 -0.25391,0.0723 0.0352,0.0488 0.0723,0.0957 0.1084,0.14551 z" /><path
         id="path240"
         style="fill:#2868ad;fill-opacity:1;fill-rule:evenodd;stroke:none"
         d="m 544.83301,296.99023 c 0.0361,-0.0605 0.0732,-0.12207 0.1084,-0.18164 0.0371,0 0.0732,0 0.10937,0 0.0244,0.0352 0.0488,0.0723 0.0732,0.1084 -0.0127,0.0244 -0.0244,0.0478 -0.0361,0.0732 -0.0859,0 -0.17187,0 -0.25488,0 z" /><path
         id="path242"
         style="fill:#2868ad;fill-opacity:1;fill-rule:evenodd;stroke:none"
         d="m 511.88281,296.84375 c 0.0488,0 0.0977,0 0.14649,0 0,-0.0352 0,-0.0723 0,-0.10937 -0.0723,-0.0586 -0.0508,-0.0469 -0.18262,-0.0723 0.0127,0.0606 0.0244,0.12109 0.0361,0.18164 z" /><path
         id="path244"
         style="fill:#2868ad;fill-opacity:1;fill-rule:evenodd;stroke:none"
         d="m 545.26953,296.69727 c 0.19531,-0.30176 0.45117,-0.51465 0.73047,-0.72852 0.0488,0 0.0977,0 0.14551,0 0,0.0117 0,0.0234 0,0.0371 -0.15918,0.26465 -0.53028,0.61719 -0.87598,0.69141 z" /><path
         id="path246"
         style="fill:#2868ad;fill-opacity:1;fill-rule:evenodd;stroke:none"
         d="m 513.63477,296.66211 c 0.13086,-0.0654 0.043,0.0195 0.10937,-0.10938 -0.0371,0 -0.0732,0 -0.10937,0 0,0.0352 0,0.0723 0,0.10938 z" /><path
         id="path248"
         style="fill:#2868ad;fill-opacity:1;fill-rule:evenodd;stroke:none"
         d="m 512.54004,296.29688 c 0.0479,-0.0234 0.0967,-0.0488 0.14551,-0.0732 -0.008,-0.16504 -0.0254,-0.19629 -0.0723,-0.29199 -0.20117,-0.0996 -0.19629,-0.21484 -0.47461,-0.25586 0.0527,0.2832 0.23535,0.44922 0.40137,0.6211 z" /><path
         id="path250"
         style="fill:#2868ad;fill-opacity:1;fill-rule:evenodd;stroke:none"
         d="m 513.45215,296.1875 c 0.0361,0 0.0732,0 0.10937,0 -0.0361,-0.13477 -0.0732,-0.26758 -0.10937,-0.40137 -0.0732,0 -0.14551,0 -0.21777,0 0,0.0361 0,0.0732 0,0.1084 0.0723,0.0977 0.14453,0.19531 0.21777,0.29297 z" /><path
         id="path252"
         style="fill:#2868ad;fill-opacity:1;fill-rule:evenodd;stroke:none"
         d="m 544.32129,296.15039 c 0.0361,0 0.0732,0 0.10937,0 0.0615,-0.0488 0.12207,-0.0977 0.18262,-0.14453 0,-0.0498 0,-0.0986 0,-0.14648 -0.0732,0.0234 -0.14648,0.0479 -0.21875,0.0723 -0.0254,0.0742 -0.0488,0.14649 -0.0732,0.21875 z" /><path
         id="path254"
         style="fill:#2868ad;fill-opacity:1;fill-rule:evenodd;stroke:none"
         d="m 548.77344,295.31152 c 0.20898,-0.0283 0.32031,-0.10254 0.40039,-0.25488 0.0127,-0.0371 0.0234,-0.0732 0.0371,-0.11133 -0.0137,-0.01 -0.0244,-0.0234 -0.0371,-0.0351 -0.0605,0 -0.1211,0 -0.18164,0 -0.0937,0.14355 -0.17578,0.20214 -0.21875,0.40136 z" /><path
         id="path256"
         style="fill:#2868ad;fill-opacity:1;fill-rule:evenodd;stroke:none"
         d="m 511.70117,295.12891 c 0.0361,0 0.0723,0 0.10938,0 -0.0127,-0.0606 -0.0254,-0.1211 -0.0371,-0.1836 -0.0488,-0.01 -0.0967,-0.0234 -0.14453,-0.0351 0,0.0605 0,0.12109 0,0.18164 0.0234,0.0127 0.0478,0.0254 0.0723,0.0371 z" /><path
         id="path258"
         style="fill:#2868ad;fill-opacity:1;fill-rule:evenodd;stroke:none"
         d="m 510.56934,294.40039 c 0.0732,-0.0137 0.14648,-0.0254 0.21972,-0.0371 0,-0.0127 0,-0.0254 0,-0.0371 -0.0127,-0.0488 -0.0254,-0.0976 -0.0371,-0.14551 -0.0117,0 -0.0244,0 -0.0361,0 -0.0478,0.0117 -0.0977,0.0244 -0.14648,0.0361 0,0.0605 0,0.12109 0,0.18359 z" /><path
         id="path260"
         style="fill:#2868ad;fill-opacity:1;fill-rule:evenodd;stroke:none"
         d="m 545.48926,294.40039 c 0.0732,-0.0137 0.14551,-0.0254 0.21972,-0.0371 0.0352,-0.0859 0.0723,-0.1709 0.1084,-0.25586 -0.0244,-0.0117 -0.0488,-0.0244 -0.0732,-0.0371 -0.19922,0.0605 -0.28613,0.13867 -0.25488,0.33008 z" /><path
         id="path262"
         style="fill:#2868ad;fill-opacity:1;fill-rule:evenodd;stroke:none"
         d="m 510.31445,293.9248 c 0.0488,0 0.0977,0 0.14551,0 0,-0.0361 0,-0.0732 0,-0.10937 -0.0479,-0.0244 -0.0967,-0.0488 -0.14551,-0.0732 0,0.0605 0,0.12109 0,0.18261 z" /><path
         id="path264"
         style="fill:#2868ad;fill-opacity:1;fill-rule:evenodd;stroke:none"
         d="m 546.32813,293.08594 c -0.084,0.0117 -0.16993,0.0234 -0.25586,0.0361 -0.18653,0.0918 -0.39063,0.27051 -0.4375,0.51074 0.0488,0 0.0977,0 0.14648,0 0.18164,-0.12109 0.36426,-0.24316 0.54688,-0.36523 0,-0.0606 0,-0.1211 0,-0.18164 z" /><path
         id="path266"
         style="fill:#2868ad;fill-opacity:1;fill-rule:evenodd;stroke:none"
         d="m 549.1377,293.19531 c 0.1455,-0.0371 0.29101,-0.0732 0.43847,-0.10937 0.0107,-0.0254 0.0234,-0.0488 0.0361,-0.0723 -0.0127,-0.0615 -0.0254,-0.12304 -0.0361,-0.18359 -0.0488,0 -0.0977,0 -0.14746,0 -0.0967,0.0605 -0.19238,0.12207 -0.29101,0.18359 0,0.0596 0,0.1211 0,0.18164 z" /><g
         style="fill:#f8ab1d;fill-opacity:1"
         id="g608"><path
           d="m 400.93652,312.27148 -6.32324,15.06641 -0.18457,-0.3999 -6.78027,-14.6294 0.35351,-0.21826 c 0,0 5.29102,11.41602 6.40235,13.81641 v -13.76416 h 0.40234 v 13.67676 c 1.08887,-2.5918 5.76758,-13.74903 5.76758,-13.74903 z"
           style="fill:#f8ab1d;fill-opacity:1;fill-rule:nonzero;stroke:none"
           id="path88" /><g
           style="fill:#f8ab1d;fill-opacity:1"
           id="g579"><path
             id="path78"
             style="fill:#f8ab1d;fill-opacity:1;fill-rule:nonzero;stroke:none"
             d="m 392.82031,295.83008 h -3.02636 c 0.0469,0.20703 0.0811,0.42187 0.0811,0.64648 0,1.35742 -0.94727,2.45899 -2.11914,2.45899 h -3.53125 v 34.71435 c -0.94238,0.61182 -1.54981,1.10938 -2.29883,1.10938 -0.74609,0 -1.35156,-0.49756 -2.29492,-1.10938 v -34.71435 h -3.5332 c -1.17188,0 -2.12012,-1.10157 -2.12012,-2.45899 0,-0.22461 0.0361,-0.43945 0.084,-0.64648 h -3.02832 c -0.48828,0 -0.88281,-0.61524 -0.88281,-1.37403 0,-0.75878 0.39453,-1.37207 0.88281,-1.37207 h 21.78711 c 0.48828,0 0.88379,0.61329 0.88379,1.37207 0,0.75879 -0.39551,1.37403 -0.88379,1.37403 z" /><path
             id="path86"
             style="fill:#f8ab1d;fill-opacity:1;fill-rule:nonzero;stroke:none"
             d="m 387.65527,312.34277 c 0.41797,-1.88574 3.24121,-3.3457 6.66309,-3.3457 3.41992,0 6.24219,1.45996 6.66211,3.3457 z" /><path
             id="path90"
             style="fill:#f8ab1d;fill-opacity:1;fill-rule:nonzero;stroke:none"
             d="m 374.23242,330.82373 c -3.40234,-1.95264 -6.18359,-2.89062 -6.21289,-2.8999 -0.39844,-0.13281 -0.61621,-0.56934 -0.48535,-0.97461 0.13086,-0.40381 0.56152,-0.62598 0.95996,-0.49219 0.11914,0.04 2.94727,0.99024 6.48047,3.02051 3.60352,2.02441 6.08594,-1.42725 6.19141,-1.57617 0.24218,-0.34571 0.71875,-0.42725 1.06054,-0.18213 0.34082,0.24609 0.42383,0.72461 0.18262,1.07324 -1.14551,1.6499 -4.32715,4.19482 -8.17676,2.03125 z" /><g
             style="fill:#f8ab1d;fill-opacity:1"
             id="g541"><path
               d="m 389.62305,330.69482 c 3.40234,-1.95312 6.18359,-2.89111 6.21093,-2.89941 0.39844,-0.13379 0.61719,-0.57031 0.48438,-0.97363 -0.12891,-0.40479 -0.55859,-0.62549 -0.96094,-0.49365 -0.11719,0.04 -2.94336,0.98974 -6.47851,3.02099 -3.60254,2.0249 -6.08594,-1.42724 -6.19141,-1.57568 -0.24414,-0.34717 -0.71777,-0.42774 -1.06055,-0.18262 -0.34082,0.24512 -0.42382,0.72461 -0.18164,1.07275 1.14453,1.64991 4.32813,4.19581 8.17774,2.03125 z"
               style="fill:#f8ab1d;fill-opacity:1;fill-rule:nonzero;stroke:none"
               id="path92" /><g
               style="fill:#f8ab1d;fill-opacity:1"
               id="g473"><path
                 d="m 362.87988,312.34277 c 0.41797,-1.88574 3.24121,-3.3457 6.66309,-3.3457 3.41992,0 6.24316,1.45996 6.66211,3.3457 z"
                 style="fill:#f8ab1d;fill-opacity:1;fill-rule:nonzero;stroke:none"
                 id="path82" /><path
                 d="m 376.16016,312.27148 -6.32227,15.06641 -0.18652,-0.3999 -6.77832,-14.6294 0.35351,-0.21826 c 0,0 5.29102,11.41602 6.40235,13.81641 v -13.76416 h 0.40039 v 13.68017 c 1.08398,-2.58398 5.76953,-13.75244 5.76953,-13.75244 z"
                 style="fill:#f8ab1d;fill-opacity:1;fill-rule:nonzero;stroke:none"
                 id="path84" /></g></g></g></g><text
         y="-258.66391"
         x="250.82414"
         transform="scale(0.97743056,-1.0230906)"
         style="font-style:normal;font-variant:normal;font-weight:normal;font-stretch:normal;font-size:18.9251px;font-family:'Myriad Pro';-inkscape-font-specification:'Myriad Pro';writing-mode:lr-tb;fill:#254994;fill-opacity:1;fill-rule:nonzero;stroke:none;stroke-width:1.03378"
         id="text165"><tspan
           style="fill:#254994;fill-opacity:1;stroke-width:1.03378"
           x="330.23383 340.60324 345.03168 355.61078 366.03772 372.30191"
           y="-258.66391"
           sodipodi:role="line"
           id="tspan155">Rights</tspan><tspan
           style="fill:#254994;fill-opacity:1;stroke-width:1.03378"
           sodipodi:role="line"
           id="tspan157"
           x="330.23383"
           y="-235.00754" /><tspan
           style="fill:#254994;fill-opacity:1;stroke-width:1.03378"
           sodipodi:role="line"
           id="tspan159"
           y="-258.66391"
           x="484.01648 494.27383 507.3132">BOQ</tspan><tspan
           style="fill:#254994;fill-opacity:1;stroke-width:1.03378"
           sodipodi:role="line"
           id="tspan163"
           x="330.23383"
           y="-235.00754" /></text></g></g></svg>
