<?xml version="1.0" encoding="utf-8"?>
<!-- Generator: Adobe Illustrator 24.3.0, SVG Export Plug-In . SVG Version: 6.00 Build 0)  -->
<svg version="1.1"
	 id="svg10" xmlns:cc="http://creativecommons.org/ns#" xmlns:dc="http://purl.org/dc/elements/1.1/" xmlns:rdf="http://www.w3.org/1999/02/22-rdf-syntax-ns#" xmlns:svg="http://www.w3.org/2000/svg"
	 xmlns="http://www.w3.org/2000/svg" xmlns:xlink="http://www.w3.org/1999/xlink" x="0px" y="0px" viewBox="0 0 1280 1259.1"
	 style="enable-background:new 0 0 1280 1259.1;" xml:space="preserve">
<style type="text/css">
	.st0{fill:#FFFFFF;}
	.st1{fill:#254994;}
	.st2{fill:#F8AB1D;}
</style>
<path class="st0" d="M639.3,1198.2h-1.1H636c-3.9,0-7.9,0-11.7-0.2c-33.5-0.9-67.3-4.7-100.5-11.6l-1-0.2
	c-88-18.3-171.5-58.1-241.5-115.1C217.6,1019.3,164.9,953,129,879.4c-38.3-78.2-57.6-162.3-57.5-250.1
	c0.2-89.6,20.6-175.2,60.8-254.5c38.1-75.6,93.8-142.8,161-194.6c83.1-63.9,181.9-103.5,285.9-114.4c19.9-2.2,40.3-3.3,61.2-3.2
	c17.7,0,35.7,0.9,53.5,2.6c106.1,10.1,207,49.9,291.6,115.2c67.3,51.9,123.1,119.4,161.3,195.2c40.2,79.9,60.5,166,60.3,256
	c-0.2,88.3-20,172.7-59,251.1c-36.4,73.5-89.6,139.6-153.9,191.2c-71.9,57.6-157.4,97.1-247.4,114.3l-0.8,0.4l-1.4,0
	C710.1,1195,674.7,1198.2,639.3,1198.2"/>
<g>
	<g id="g706" transform="translate(-12,22.5)">
		<path id="path36" class="st1" d="M1152.5,855.1c-36.1,73.3-88,137.5-151.2,188.4c-69.7,56.1-153,95.8-244.4,113.2
			c-0.2,0-0.2,0-0.3,0c-9.1,0.5-18.3,0.8-27.7,1.1c-12.8,0.5-25.8,0.8-38.9,1.1c54.5-22.2,102.7-89.4,137.8-185
			c20-55,35.6-119.3,45.6-190c70.6,8.9,134.8,22,189.8,38.3C1096.5,831.9,1126.6,843,1152.5,855.1"/>
		<path id="path56" class="st1" d="M170.6,630.6v-29H225v59.5c-10.4,8.7-19.6,14.6-27.6,17.7c-8,3.1-17.5,4.7-28.5,4.7
			c-13.5,0-24.6-2.8-33.1-8.4c-8.5-5.6-15.2-14-19.8-25.2c-4.7-11.2-7.1-24-7.1-38.5c0-15.2,2.6-28.4,7.7-39.7
			c5.1-11.3,12.6-19.8,22.5-25.6c7.7-4.5,18.1-6.8,31.2-6.8c12.6,0,22,1.4,28.3,4.2c6.2,2.8,11.4,7.1,15.5,13
			c4.1,5.8,7.2,13.3,9.3,22.3l-33.9,7.4c-1.4-5.2-3.8-9.3-7.1-12.1c-3.3-2.8-7.6-4.2-12.8-4.2c-7.7,0-13.8,3.3-18.5,9.8
			c-4.5,6.6-6.8,16.9-6.8,31.2c0,15,2.3,25.9,6.9,32.3c4.7,6.5,11.1,9.7,19.4,9.7c3.9,0,7.6-0.7,11.2-2.1c3.6-1.4,7.7-3.8,12.3-7.1
			v-13.1L170.6,630.6L170.6,630.6z"/>
		<path id="path58" class="st1" d="M276.7,611.7c0,14,2.2,24.2,6.4,30.3c4.3,6.2,10.1,9.2,17.4,9.2c7.6,0,13.5-3,17.6-9
			c4.1-6,6.2-16.9,6.2-32.4c0-13.1-2.2-22.8-6.5-28.8c-4.4-6.1-10.2-9.1-17.6-9.1c-7.1,0-12.8,3.1-17.1,9.2
			C278.9,587.3,276.7,597.5,276.7,611.7 M241.5,611.5c0-22.7,5.1-40.5,15.5-53.2c10.4-12.7,24.8-19,43.3-19
			c18.9,0,33.6,6.2,43.8,18.7c10.3,12.4,15.4,29.9,15.4,52.4c0,16.3-2.2,29.6-6.7,40.1c-4.5,10.4-10.9,18.5-19.3,24.3
			c-8.5,5.8-19.1,8.7-31.7,8.7c-12.9,0-23.5-2.4-31.8-7.4c-8.5-5.1-15.3-13-20.5-23.8C244.1,641.4,241.5,627.8,241.5,611.5"/>
		<path id="path60" class="st1" d="M409.3,611.7c0,14,2.1,24.2,6.4,30.3c4.2,6.2,10,9.2,17.4,9.2c7.6,0,13.5-3,17.6-9
			c4.1-6,6.2-16.9,6.2-32.4c0-13.1-2.2-22.8-6.5-28.8c-4.3-6.1-10.1-9.1-17.5-9.1c-7.1,0-12.8,3.1-17.1,9.2
			C411.5,587.3,409.3,597.5,409.3,611.7 M374.1,611.5c0-22.7,5.2-40.5,15.5-53.2c10.4-12.7,24.9-19,43.3-19c19,0,33.6,6.2,43.8,18.7
			c10.3,12.4,15.4,29.9,15.4,52.4c0,16.3-2.2,29.6-6.8,40.1c-4.5,10.4-10.9,18.5-19.4,24.3c-8.5,5.8-19,8.7-31.6,8.7
			c-12.9,0-23.5-2.4-32-7.4c-8.4-5.1-15.2-13-20.4-23.8C376.8,641.4,374.1,627.8,374.1,611.5"/>
		<path id="path62" class="st1" d="M546.8,573.3v76.2h8.6c7.4,0,12.5-1,15.7-3c3.1-2,5.5-5.5,7.3-10.5c1.8-4.9,2.7-13,2.7-24.1
			c0-14.8-2-24.9-5.9-30.4c-3.9-5.4-10.5-8.2-19.6-8.2L546.8,573.3 M511.6,541.7h52.3c10.3,0,18.7,1.7,25,5.1
			c6.4,3.4,11.6,8.3,15.7,14.7c4.2,6.4,7.2,13.8,9,22.4c1.9,8.5,2.8,17.5,2.8,27c0,14.9-1.4,26.5-4.1,34.6
			c-2.8,8.2-6.6,15.1-11.6,20.7c-4.9,5.5-10.2,9.2-15.9,11c-7.7,2.6-14.7,3.8-21,3.8h-52.3V541.7L511.6,541.7z"/>
		<path id="path64" class="st1" d="M688.2,541.7h87.1v30h-51.7V596h44.2v28.2h-44.2v56.9h-35.3V541.7z"/>
		<path id="path66" class="st1" d="M842,627.9l-12.6-50.1L817,627.9H842 M849.3,658.1h-40l-5.5,23h-36l42.8-139.4h38.4l42.8,139.4
			H855L849.3,658.1z"/>
		<path id="path68" class="st1" d="M904.5,541.7h35.3v139.4h-35.3V541.7z"/>
		<path id="path70" class="st1" d="M957,541.7h107v34.5h-36v104.9h-35.2V576.2H957V541.7z"/>
		<path id="path72" class="st1" d="M1080.1,541.7h35.2v48.8h38.4v-48.8h35.4v139.4h-35.4v-56.4h-38.4v56.4h-35.2V541.7z"/>
	</g>
	<g id="g673" transform="translate(-12,22.5)">
		<path id="path38" class="st2" d="M245.2,819.6c24.2,75.3,62,143.4,109.6,196.9l1.8,2c78.1,86.9,177.4,132.9,287.2,133.1h4.6h0.6
			l1.8,15c-0.8,0.1-1.7,0.1-2.5,0.1h-4.5c-113.3-0.2-215.5-47.1-296.2-135.6l0,0l-2.3-2.5c-49.7-55.4-89.3-126-114.4-204.3
			L245.2,819.6L245.2,819.6z"/>
		<path id="path40" class="st2" d="M436.2,782.7c9.9,74.3,25.8,140.6,47,197.1c41.6,110.6,99.6,171.6,163.5,171.7h1.7h0.6l1.8,15
			c-0.8,0.1-1.7,0.1-2.5,0.1h-1.6c-70.6-0.1-133.6-64.6-177.6-181.5c-21.7-57.6-37.8-125.1-47.9-200.5L436.2,782.7L436.2,782.7z"/>
		<path id="path42" class="st2" d="M652,957.2c0.6,0,1.2,0,1.8,0c58.3,0.1,114.7,5.6,167.7,16.3l-3,14.8
			c-52-10.5-107.5-16-164.8-16.1c-61.4,0-120.5,5.8-176,17.6c-46.4,9.9-88,23.5-123.6,40.4l-1.6,0.7c-13.5,6.5-26.1,13.4-37.4,20.6
			l-8.2-12.7c12.3-7.9,26-15.4,40.6-22.3l1.7-0.7c36.4-17.1,78.5-30.8,125.3-40.8C530.6,963.2,590.3,957.2,652,957.2"/>
		<path id="path44" class="st2" d="M650.8,762.7c1.3,0,2.5,0,3.9,0c75,0.2,148.1,4.6,217.2,13.2c70,8.7,134,21.4,189.9,37.6
			c34.7,10.1,65.6,21.3,92.1,33.5l-6.3,13.8c-25.8-11.9-56-22.9-90-32.8c-55.2-16-118.2-28.5-187.5-37.1
			c-68.4-8.5-140.9-12.9-215.4-13.1c-77.5-0.1-153.3,4.3-225,13.3c-70.2,8.9-133.9,21.6-189.5,38c-31.6,9.3-60.1,19.7-84.7,30.9
			l-6.2-13.8c25.2-11.4,54.4-22,86.6-31.6c56.3-16.6,120.9-29.6,191.9-38.5S573.9,762.7,650.8,762.7"/>
		<g id="g643">
			<path id="path34" class="st2" d="M539.7,1146.2c32.1,6.6,64.7,10.4,97.1,11.2c3.8,0.1,7.6,0.2,11.3,0.2h2.1
				c34.6,0,69.1-3.1,102.8-9.4l1.2-0.2c87.5-16.5,170.8-54.8,240.6-110.9c62.3-49.9,113.8-113.9,149.1-185.1
				c37.7-75.8,56.9-157.6,57.1-243c0.1-87.1-19.5-170.5-58.4-247.8c-36.9-73.4-90.9-138.7-156.1-189
				C904.6,109.1,807.1,70.5,704.2,60.8c-17.3-1.7-34.7-2.6-51.8-2.6c-20.2-0.1-40,1-59.3,3.1C492.5,71.9,396.8,110.2,316.4,172
				c-65.1,50.1-119.1,115.3-156,188.4c-38.8,76.8-58.6,159.7-58.7,246.4c-0.2,85,18.5,166.4,55.6,242.1
				c34.8,71.3,85.8,135.4,147.5,185.6c67.5,55,148,93.4,232.8,111.3h1.2L539.7,1146.2 M651.3,1175.7h-1.1H648c-3.9,0-7.9,0-11.7-0.2
				c-33.5-0.9-67.3-4.7-100.5-11.6l-1-0.2c-88-18.3-171.5-58.1-241.5-115.1C229.6,996.8,176.9,930.5,141,856.9
				c-38.3-78.2-57.6-162.3-57.5-250.1c0.2-89.6,20.6-175.2,60.8-254.5c38.1-75.6,93.8-142.8,161-194.6
				C388.4,93.7,487.2,54.2,591.2,43.3c19.9-2.2,40.3-3.3,61.2-3.2c17.7,0,35.7,0.9,53.5,2.6c106.1,10.1,207,49.9,291.6,115.2
				c67.3,51.9,123.1,119.4,161.3,195.2c40.2,79.9,60.5,166,60.3,256c-0.2,88.3-20,172.7-59,251.1c-36.4,73.5-89.6,139.6-153.9,191.2
				c-71.9,57.6-157.4,97.1-247.4,114.3l-0.8,0.4l-1.4,0C722.1,1172.5,686.7,1175.7,651.3,1175.7"/>
			<g id="g634">
				<path id="path46" class="st2" d="M150.5,360.8c36.6-73.4,89-137.6,152.8-188.4c70.4-56.1,154.7-95.8,247-113.2
					c0.2-0.1,0.2-0.1,0.3-0.1c9.2-0.4,18.6-0.7,28-1c12.9-0.4,26.1-0.7,39.4-1c-55.1,22.2-103.8,89.4-139.2,185
					c-20.1,55-36.1,119.3-46.1,190c-71.4-8.9-136.3-22-191.8-38.2C207.1,383.8,176.7,372.7,150.5,360.8"/>
				<path id="path48" class="st2" d="M1057.8,396.2c-24.1-75.4-62-143.3-109.5-196.9l-1.8-1.9C868.4,110.5,766.8,58.4,657,58.2h-4.6
					h-0.6l0.5-8.9c0.8,0,1.7,0,2.5-0.1l4.5,0c113.2,0.2,215.5,47,296.2,135.6l0,0l2.3,2.5c49.6,55.4,89.2,126.1,114.4,204.3
					L1057.8,396.2L1057.8,396.2z"/>
				<path id="path50" class="st2" d="M866.8,433.1c-9.9-75.2-25.7-142.5-47-199.7C778.2,121.3,720.1,56,656.2,55.9h-1.6l-0.5,3.6
					l-1.8-15.2c0.8,0,1.7,0,2.5,0h1.6c70.6,0,133.6,65.4,177.5,183.8c21.8,58.4,37.9,126.7,47.9,203.1L866.8,433.1L866.8,433.1z"/>
				<path id="path52" class="st2" d="M646,258.6h-1.9C585,258.5,527.7,253,474,242.2l3.1-14.8c52.8,10.5,109,16,167.2,16.1
					c62.3,0,122.3-5.8,178.7-17.6c46.9-9.9,89.2-23.5,125.4-40.4l1.5-0.7c13.7-6.5,26.4-13.4,38-20.6l8.3,12.7
					c-12.5,7.9-26.4,15.4-41.3,22.3l-1.6,0.7c-36.9,17.1-79.7,30.8-127.2,40.8C769.2,252.6,708.6,258.6,646,258.6"/>
				<path id="path54" class="st2" d="M652.2,453h-3.8c-75.1-0.2-148.1-4.6-217.2-13.2c-70.1-8.7-133.9-21.4-189.8-37.6
					c-34.8-10.1-65.8-21.4-92.2-33.6l6.3-13.7c25.8,11.8,56,22.9,90,32.8c55.1,16,118.2,28.5,187.5,37.1
					c68.5,8.5,140.9,12.9,215.4,13.1c77.4,0.1,153.4-4.4,224.9-13.3c70.3-8.8,134-21.6,189.5-38c31.7-9.3,60.1-19.7,84.7-30.8
					l6.3,13.8c-25.2,11.5-54.4,22.1-86.6,31.6c-56.3,16.7-120.9,29.6-191.9,38.5C804.1,448.5,729.1,453,652.2,453"/>
			</g>
		</g>
	</g>
</g>
</svg>
